<svg xmlns="http://www.w3.org/2000/svg" viewBox="0 0 500 500"><g id="freepik--Floor--inject-47"><path d="M410,263.44c-89-51.36-232.74-51.36-321.13,0S1,398.09,90,449.46s232.75,51.37,321.14,0S499,314.81,410,263.44Z" style="fill:#f5f5f5"></path></g><g id="freepik--Shadows--inject-47"><path d="M166.48,379c-15.31-8.84-40-8.84-55.24,0a33.05,33.05,0,0,0-3.15,2.08c-14.26-3.52-31.35-1.92-42.93,4.81-15.21,8.83-15.12,23.16.18,32s40,8.84,55.24,0a35,35,0,0,0,3.15-2.07c14.26,3.51,31.35,1.91,42.93-4.81C181.86,402.19,181.78,387.86,166.48,379Z" style="fill:#e0e0e0"></path><path d="M438.84,381.83c-12.85-7.42-32.31-8.62-47.26-3.63a30.68,30.68,0,0,0-5.84-4.3c-15.36-8.87-40.18-8.87-55.44,0s-15.18,23.24.18,32.11c12.85,7.42,32.31,8.63,47.26,3.64a30.66,30.66,0,0,0,5.84,4.29c15.36,8.87,40.18,8.87,55.44,0S454.2,390.7,438.84,381.83Z" style="fill:#e0e0e0"></path><path d="M305.77,307.16c-12-6.94-29.81-8.4-44.27-4.44a31.35,31.35,0,0,0-5.12-3.64c-15.3-8.83-40-8.83-55.21,0s-15.12,23.15.18,32c12,6.93,29.81,8.4,44.27,4.44a31.32,31.32,0,0,0,5.12,3.63c15.3,8.84,40,8.84,55.22,0S321.07,316,305.77,307.16Z" style="fill:#e0e0e0"></path></g><g id="freepik--Plants--inject-47"><path d="M51,355.34c-3.43-3.71-7.34-7-10.53-10.92-2.17-2.68-4.06-6-3.45-9.42a8.62,8.62,0,0,1,6.4-6.46A13.13,13.13,0,0,1,52.67,330a28.16,28.16,0,0,1,7.36,6.1,68.84,68.84,0,0,1,17.79,48c-.06,2-.25,4.12-1.42,5.75A5.65,5.65,0,0,1,70.71,392c-5.41-1.22-5.19-8.42-6.35-12.57a59.21,59.21,0,0,0-7.21-16.11A57.74,57.74,0,0,0,51,355.34Z" style="fill:#11888E"></path><path d="M72.38,386.55a.47.47,0,0,1-.4-.41c-1-8.48-5.69-37.32-26.83-52.43a.47.47,0,0,1-.1-.65.46.46,0,0,1,.64-.11C67.14,348.28,71.94,377.46,72.91,386a.48.48,0,0,1-.41.51Z" style="fill:#f0f0f0"></path><path d="M71.26,389.15c-.38,3.38-3,7.7-5.88,9.45a18.33,18.33,0,0,1-9.72,2.31,43.16,43.16,0,0,1-10.14-1.68c-1.64-.43-3.48-1-3.78-3a3.52,3.52,0,0,1,.94-2.87,12.58,12.58,0,0,1,1-1,1,1,0,0,0-.67-1.81,23,23,0,0,1-2.87-.16A12.44,12.44,0,0,1,34,388.12a9.86,9.86,0,0,1-3-3.9c-.57-1.3-.82-3,.12-4a4.33,4.33,0,0,1,2.15-1.12c.7-.2,1.4-.38,2.11-.54a1,1,0,0,0,.1-1.83l-3.11-1.05a5.6,5.6,0,0,1-2.38-1.27c-1-1.05-1.05-2.67-.87-4.11.24-1.92.77-3.78,1.09-5.69a12,12,0,0,0-.19-5.72,48,48,0,0,1,17,0,12.22,12.22,0,0,1,4.75,1.71c2,1.38,2.63,3.6,2.6,6.06a.43.43,0,0,0,.83.18l1.69-3.69a2.29,2.29,0,0,1,2.93-1.16,14,14,0,0,1,4.65,3.17,7.65,7.65,0,0,1,2.27,5.51A50.11,50.11,0,0,1,65.8,379a.76.76,0,0,0,1.25.73l.09-.07a2.57,2.57,0,0,1,1.78-.65c1.72.09,2.27,1.79,2.49,3.25A28.6,28.6,0,0,1,71.26,389.15Z" style="fill:#e6e6e6"></path><path d="M71.26,389.15c-.38,3.38-3,7.7-5.88,9.45a18.33,18.33,0,0,1-9.72,2.31,43.16,43.16,0,0,1-10.14-1.68c-1.64-.43-3.48-1-3.78-3a3.52,3.52,0,0,1,.94-2.87,12.58,12.58,0,0,1,1-1,1,1,0,0,0-.67-1.81,23,23,0,0,1-2.87-.16A12.44,12.44,0,0,1,34,388.12a9.86,9.86,0,0,1-3-3.9c-.57-1.3-.82-3,.12-4a4.33,4.33,0,0,1,2.15-1.12c.7-.2,1.4-.38,2.11-.54a1,1,0,0,0,.1-1.83l-3.11-1.05a5.6,5.6,0,0,1-2.38-1.27c-1-1.05-1.05-2.67-.87-4.11.24-1.92.77-3.78,1.09-5.69a12,12,0,0,0-.19-5.72,48,48,0,0,1,17,0,12.22,12.22,0,0,1,4.75,1.71c2,1.38,2.63,3.6,2.6,6.06a.43.43,0,0,0,.83.18l1.69-3.69a2.29,2.29,0,0,1,2.93-1.16,14,14,0,0,1,4.65,3.17,7.65,7.65,0,0,1,2.27,5.51A50.11,50.11,0,0,1,65.8,379a.76.76,0,0,0,1.25.73l.09-.07a2.57,2.57,0,0,1,1.78-.65c1.72.09,2.27,1.79,2.49,3.25A28.6,28.6,0,0,1,71.26,389.15Z" style="fill:#11888E"></path><path d="M71.26,389.15c-.38,3.38-3,7.7-5.88,9.45a18.33,18.33,0,0,1-9.72,2.31,43.16,43.16,0,0,1-10.14-1.68c-1.64-.43-3.48-1-3.78-3a3.52,3.52,0,0,1,.94-2.87,12.58,12.58,0,0,1,1-1,1,1,0,0,0-.67-1.81,23,23,0,0,1-2.87-.16A12.44,12.44,0,0,1,34,388.12a9.86,9.86,0,0,1-3-3.9c-.57-1.3-.82-3,.12-4a4.33,4.33,0,0,1,2.15-1.12c.7-.2,1.4-.38,2.11-.54a1,1,0,0,0,.1-1.83l-3.11-1.05a5.6,5.6,0,0,1-2.38-1.27c-1-1.05-1.05-2.67-.87-4.11.24-1.92.77-3.78,1.09-5.69a12,12,0,0,0-.19-5.72,48,48,0,0,1,17,0,12.22,12.22,0,0,1,4.75,1.71c2,1.38,2.63,3.6,2.6,6.06a.43.43,0,0,0,.83.18l1.69-3.69a2.29,2.29,0,0,1,2.93-1.16,14,14,0,0,1,4.65,3.17,7.65,7.65,0,0,1,2.27,5.51A50.11,50.11,0,0,1,65.8,379a.76.76,0,0,0,1.25.73l.09-.07a2.57,2.57,0,0,1,1.78-.65c1.72.09,2.27,1.79,2.49,3.25A28.6,28.6,0,0,1,71.26,389.15Z" style="opacity:0.2"></path><path d="M62.88,398.3a69,69,0,0,0-5.45-12.86.45.45,0,0,0-.18-.34l-.36-.67A42.75,42.75,0,0,1,60.36,369a.46.46,0,0,0-.83-.41A43.34,43.34,0,0,0,56,383c-4.37-7.46-11.13-16.07-21-22a.47.47,0,0,0-.48.8c10.24,6.14,17.05,15.15,21.33,22.72a28.44,28.44,0,0,0-16.26-1.08.46.46,0,0,0,.06.91.5.5,0,0,0,.17,0c.09,0,8.83-2.24,16.77,1.52A67.75,67.75,0,0,1,62,398.54a.46.46,0,0,0,.39.34.37.37,0,0,0,.18,0A.46.46,0,0,0,62.88,398.3Z" style="fill:#f0f0f0"></path><path d="M438.77,386.12l-5.62-4.61c-.35-8.86-.69-18.2.78-26.94s4.91-17.4,11.16-23.68c2.62-2.64,5.87-4.88,9.56-5.3s7.81,1.44,9.08,4.93c1.33,3.65-.67,7.61-2.81,10.86-4.56,6.92-10,13.24-14.46,20.22S438.87,377.83,438.77,386.12Z" style="fill:#11888E"></path><path d="M438.77,387.33l5.62,4.62c4.15-8.77,9.89-16.9,17.8-22.52,2.7-1.93,5.61-3.64,7.88-6.07s3.85-5.79,3.19-9c-.84-4.18-5.28-6.94-9.54-7s-8.26,2.14-11.56,4.84C442,360.47,436.21,374.5,438.77,387.33Z" style="fill:#f0f0f0"></path><path d="M438.77,387.33l5.62,4.62c4.15-8.77,9.89-16.9,17.8-22.52,2.7-1.93,5.61-3.64,7.88-6.07s3.85-5.79,3.19-9c-.84-4.18-5.28-6.94-9.54-7s-8.26,2.14-11.56,4.84C442,360.47,436.21,374.5,438.77,387.33Z" style="fill:#11888E"></path><path d="M438.77,387.33l5.62,4.62c4.15-8.77,9.89-16.9,17.8-22.52,2.7-1.93,5.61-3.64,7.88-6.07s3.85-5.79,3.19-9c-.84-4.18-5.28-6.94-9.54-7s-8.26,2.14-11.56,4.84C442,360.47,436.21,374.5,438.77,387.33Z" style="opacity:0.2"></path><path d="M435.6,384h0a.5.5,0,0,1-.48-.5c.23-13.14,3.18-37.41,20.36-52.33a.49.49,0,1,1,.64.74c-7.25,6.3-19.5,21.37-20,51.61A.5.5,0,0,1,435.6,384Z" style="fill:#fff"></path><path d="M441.49,390.05h-.05a.47.47,0,0,1-.43-.53c1.14-11.81,6.3-28.08,24.33-38.5a.48.48,0,0,1,.66.18.47.47,0,0,1-.18.66C448.15,362.07,443.1,378,442,389.61A.47.47,0,0,1,441.49,390.05Z" style="fill:#fff"></path></g><g id="freepik--Clouds--inject-47"><path d="M426.12,53.51c-5.1-2.95-9.41-1.51-10.78,3.07a15.19,15.19,0,0,0-5.51-6.13c-4-2.31-7.25-.46-7.26,4.14v2.1L397.2,53.6c-2.8-1.62-5.08-.32-5.09,2.9a11.16,11.16,0,0,0,5.06,8.75l45.44,26.24c2.8,1.61,5.08.32,5.09-2.9a11.13,11.13,0,0,0-5.05-8.75l-5.37-3.1V72.86C437.31,65.75,432.31,57.08,426.12,53.51Z" style="fill:#e6e6e6"></path><path d="M381.58,70.7c-3.66-2.12-6.75-1.08-7.74,2.2a10.81,10.81,0,0,0-3.95-4.4c-2.87-1.65-5.2-.32-5.21,3V73l-3.85-2.23c-2-1.16-3.64-.22-3.65,2.09a8,8,0,0,0,3.63,6.27L393.42,98c2,1.16,3.65.23,3.65-2.08a8,8,0,0,0-3.63-6.28l-3.85-2.23V84.59C389.61,79.48,386,73.26,381.58,70.7Z" style="fill:#e6e6e6"></path><path d="M95.59,69.18c4.27-2.47,7.88-1.26,9,2.57a12.62,12.62,0,0,1,4.61-5.13c3.35-1.94,6.07-.38,6.09,3.46v1.77l4.49-2.6c2.35-1.35,4.25-.26,4.26,2.43A9.29,9.29,0,0,1,119.84,79L81.77,101c-2.34,1.35-4.25.27-4.26-2.43a9.34,9.34,0,0,1,4.24-7.33l4.49-2.59V85.39C86.21,79.43,90.4,72.17,95.59,69.18Z" style="fill:#e6e6e6"></path></g><g id="freepik--speech-bubbles--inject-47"><path d="M99.32,150.56l-17.16,9.85a3.29,3.29,0,0,0-1.25,1.26,3.43,3.43,0,0,0-.43,1.64v12.48a3.31,3.31,0,0,0,5.06,2.73l3-1.71.27.44s0,0,0,0h0l0,0h0c.49.33,1.35.79,1.55.89h0a.19.19,0,0,0,.23-.11l1.1-3.12h0l11-6.25a3.37,3.37,0,0,0,1.69-2.91V153.29C104.38,150.87,100.82,149.7,99.32,150.56Z" style="fill:#11888E"></path><path d="M85.14,162.44Z" style="fill:none"></path><path d="M88.79,177.25s0,0,0,0h0l0,0h0c.49.33,1.35.79,1.55.89h0a.13.13,0,0,1-.1-.08l-1.07-1.72.21-.12h0l-.93.53Z" style="fill:#fff;opacity:0.2"></path><path d="M84.24,163.56a3.48,3.48,0,0,1,.9-1.12h0a3,3,0,0,1,.41-.28l17.16-9.84a1.11,1.11,0,0,1,1.67,1c0-2.42-3.56-3.59-5.06-2.73l-17.16,9.85a3.29,3.29,0,0,0-1.25,1.26Z" style="fill:#fff;opacity:0.4"></path><path d="M83.87,177.55V165.06c0-.13,0-.26,0-.39a3.59,3.59,0,0,1,.35-1.11l-3.33-1.89a3.43,3.43,0,0,0-.43,1.64v12.48a3.31,3.31,0,0,0,5.06,2.73A1.12,1.12,0,0,1,83.87,177.55Z" style="fill:#fff;opacity:0.2"></path><path d="M97,158.39a2.1,2.1,0,0,1,2.08-.21c1.16.66,1.16,2.8,0,4.78l-.67,1.16-4.15,7.19-4.18-2.38-.67-.39c-1.16-.65-1.16-2.79,0-4.78a6,6,0,0,1,2.07-2.19,2.12,2.12,0,0,1,2.09-.21l.67.38.67-1.16A6,6,0,0,1,97,158.39Z" style="fill:#fff"></path><path d="M130.93,121.14,148.09,131a3.29,3.29,0,0,1,1.25,1.26,3.43,3.43,0,0,1,.43,1.64v12.49a3.31,3.31,0,0,1-5.06,2.72l-3-1.7-.27.43,0,0h0l0,0h0c-.49.33-1.35.79-1.55.89h0a.19.19,0,0,1-.23-.11l-1.1-3.12h0l-10.95-6.25a3.37,3.37,0,0,1-1.69-2.91V123.87C125.87,121.45,129.43,120.28,130.93,121.14Z" style="fill:#11888E"></path><path d="M145.11,133Z" style="fill:none"></path><path d="M141.46,147.83l0,0h0l0,0h0c-.49.33-1.35.79-1.55.89h0a.13.13,0,0,0,.1-.08L141,147l-.21-.12h0l.93.54Z" style="fill:#fff;opacity:0.2"></path><path d="M146,134.14a3.48,3.48,0,0,0-.9-1.12h0a3.71,3.71,0,0,0-.41-.28l-17.16-9.84a1.11,1.11,0,0,0-1.67,1c0-2.42,3.56-3.59,5.06-2.73L148.09,131a3.29,3.29,0,0,1,1.25,1.26Z" style="fill:#fff;opacity:0.4"></path><path d="M146.38,148.13V135.65c0-.14,0-.27,0-.4a3.59,3.59,0,0,0-.35-1.11l3.33-1.89a3.43,3.43,0,0,1,.43,1.64v12.49a3.31,3.31,0,0,1-5.06,2.72A1.12,1.12,0,0,0,146.38,148.13Z" style="fill:#fff;opacity:0.2"></path><path d="M133.29,129a2.1,2.1,0,0,0-2.08-.21c-1.16.66-1.16,2.8,0,4.78l.67,1.17,4.15,7.18,4.18-2.38.67-.39c1.16-.65,1.16-2.79,0-4.78a6,6,0,0,0-2.07-2.19,2.12,2.12,0,0,0-2.09-.21l-.67.38-.67-1.16A6,6,0,0,0,133.29,129Z" style="fill:#fff"></path><path d="M362.68,133.12,345.53,143a3.41,3.41,0,0,0-1.69,2.91v12.48a3.31,3.31,0,0,0,5.06,2.72l3-1.7.27.44.05,0h0l0,0h0c.49.32,1.35.79,1.54.89v0a.18.18,0,0,0,.23-.11l1.09-3.11h0l11-6.26a3.36,3.36,0,0,0,1.68-2.91V135.84C367.74,133.42,364.19,132.26,362.68,133.12Z" style="fill:#11888E"></path><path d="M348.51,145Z" style="fill:none"></path><path d="M352.15,159.81l.05,0h0l0,0h0c.49.32,1.35.79,1.54.89v0a.19.19,0,0,1-.11-.07L352.61,159l.21-.13h0l-.94.54Z" style="fill:#fff;opacity:0.2"></path><path d="M347.61,146.12a3.52,3.52,0,0,1,.9-1.13h0a4,4,0,0,1,.4-.28l17.16-9.84a1.11,1.11,0,0,1,1.67,1c0-2.42-3.55-3.58-5.06-2.72L345.53,143a3.31,3.31,0,0,0-1.25,1.27Z" style="fill:#fff;opacity:0.4"></path><path d="M347.23,160.1V147.62a2.69,2.69,0,0,1,0-.4,3.22,3.22,0,0,1,.35-1.1l-3.33-1.89a3.3,3.3,0,0,0-.44,1.64v12.48a3.31,3.31,0,0,0,5.06,2.72A1.11,1.11,0,0,1,347.23,160.1Z" style="fill:#fff;opacity:0.2"></path><path d="M360.32,141a2.09,2.09,0,0,1,2.09-.21c1.15.65,1.16,2.79,0,4.78l-.67,1.16-4.14,7.18-4.18-2.37-.68-.39c-1.15-.66-1.16-2.8,0-4.78a6,6,0,0,1,2.08-2.19,2.07,2.07,0,0,1,2.08-.21l.68.38.67-1.16A5.94,5.94,0,0,1,360.32,141Z" style="fill:#fff"></path><path d="M391.13,138.93l17.16,9.84a3.46,3.46,0,0,1,1.25,1.27,3.4,3.4,0,0,1,.43,1.64v12.48a3.31,3.31,0,0,1-5.06,2.73l-3-1.71-.27.44,0,0h0l0,0h0c-.49.33-1.36.79-1.55.89h0a.19.19,0,0,1-.23-.12l-1.1-3.11h0l-10.95-6.26a3.34,3.34,0,0,1-1.69-2.9V141.65C386.07,139.24,389.63,138.07,391.13,138.93Z" style="fill:#11888E"></path><path d="M405.31,150.81Z" style="fill:none"></path><path d="M401.66,165.62l0,0h0l0,0h0c-.49.33-1.36.79-1.55.89h0a.2.2,0,0,0,.1-.08l1.07-1.72-.21-.12h0l.93.53Z" style="fill:#fff;opacity:0.2"></path><path d="M406.21,151.93a3.38,3.38,0,0,0-.9-1.12h0a2.71,2.71,0,0,0-.41-.28l-17.16-9.85a1.12,1.12,0,0,0-1.67,1c0-2.41,3.56-3.58,5.06-2.72l17.16,9.84a3.46,3.46,0,0,1,1.25,1.27Z" style="fill:#fff;opacity:0.4"></path><path d="M406.58,165.92V153.43c0-.13,0-.26,0-.39a3.88,3.88,0,0,0-.35-1.11l3.33-1.89a3.4,3.4,0,0,1,.43,1.64v12.48a3.31,3.31,0,0,1-5.06,2.73A1.12,1.12,0,0,0,406.58,165.92Z" style="fill:#fff;opacity:0.2"></path><path d="M393.49,146.76a2.1,2.1,0,0,0-2.08-.21c-1.16.65-1.17,2.79,0,4.78l.67,1.16,4.15,7.18,4.18-2.37.67-.39c1.16-.65,1.16-2.8,0-4.78a5.94,5.94,0,0,0-2.07-2.19,2.09,2.09,0,0,0-2.09-.21l-.67.38-.67-1.16A6,6,0,0,0,393.49,146.76Z" style="fill:#fff"></path><path d="M243.37,66.31l-17.16,9.84A3.46,3.46,0,0,0,225,77.42a3.4,3.4,0,0,0-.43,1.64V91.54a3.31,3.31,0,0,0,5.06,2.73l3-1.71.27.44s0,0,0,0h0l0,0h0c.49.33,1.36.79,1.55.89h0a.19.19,0,0,0,.22-.12l1.1-3.11h0l11-6.26a3.32,3.32,0,0,0,1.69-2.9V69C248.43,66.62,244.87,65.45,243.37,66.31Z" style="fill:#11888E"></path><path d="M229.19,78.19Z" style="fill:none"></path><path d="M232.84,93s0,0,0,0h0l0,0h0c.49.33,1.36.79,1.55.89h0a.19.19,0,0,1-.11-.08l-1.07-1.72.21-.12h0l-.93.53Z" style="fill:#fff;opacity:0.2"></path><path d="M228.3,79.31a3.23,3.23,0,0,1,.89-1.12h0a2.71,2.71,0,0,1,.41-.28l17.16-9.85a1.12,1.12,0,0,1,1.67,1c0-2.41-3.56-3.58-5.06-2.72l-17.16,9.84A3.46,3.46,0,0,0,225,77.42Z" style="fill:#fff;opacity:0.4"></path><path d="M227.92,93.3V80.81c0-.13,0-.26,0-.39a3.61,3.61,0,0,1,.36-1.11L225,77.42a3.4,3.4,0,0,0-.43,1.64V91.54a3.31,3.31,0,0,0,5.06,2.73A1.12,1.12,0,0,1,227.92,93.3Z" style="fill:#fff;opacity:0.2"></path><path d="M241,74.14a2.1,2.1,0,0,1,2.08-.21c1.16.65,1.17,2.79,0,4.78l-.67,1.16-4.15,7.18-4.18-2.37-.67-.39c-1.16-.65-1.16-2.8,0-4.78a5.94,5.94,0,0,1,2.07-2.19,2.09,2.09,0,0,1,2.09-.21l.67.38.67-1.16A6.12,6.12,0,0,1,241,74.14Z" style="fill:#fff"></path><path d="M268.33,66l17.16,9.84a3.36,3.36,0,0,1,1.24,1.27,3.3,3.3,0,0,1,.44,1.64V91.19a3.31,3.31,0,0,1-5.06,2.72l-3-1.7-.27.44s0,0-.05,0h0l0,0h0c-.49.33-1.36.79-1.55.89h0a.2.2,0,0,1-.23-.12l-1.09-3.11h0l-11-6.26a3.32,3.32,0,0,1-1.69-2.9V68.68C263.27,66.27,266.83,65.1,268.33,66Z" style="fill:#11888E"></path><path d="M282.5,77.83h0Z" style="fill:none"></path><path d="M278.86,92.65s0,0-.05,0h0l0,0h0c-.49.33-1.36.79-1.55.89h0a.28.28,0,0,0,.11-.08l1.06-1.72-.21-.12h0l.94.53Z" style="fill:#fff;opacity:0.2"></path><path d="M283.4,79a3.23,3.23,0,0,0-.89-1.12h0a2.8,2.8,0,0,0-.4-.27l-17.16-9.85a1.12,1.12,0,0,0-1.67,1c0-2.41,3.56-3.58,5.06-2.72l17.16,9.84a3.36,3.36,0,0,1,1.24,1.27Z" style="fill:#fff;opacity:0.4"></path><path d="M283.78,93V80.46a2.56,2.56,0,0,0,0-.39A3.27,3.27,0,0,0,283.4,79l3.33-1.89a3.3,3.3,0,0,1,.44,1.64V91.19a3.31,3.31,0,0,1-5.06,2.72A1.11,1.11,0,0,0,283.78,93Z" style="fill:#fff;opacity:0.2"></path><path d="M270.69,73.79a2.09,2.09,0,0,0-2.09-.21c-1.15.65-1.16,2.79,0,4.78l.67,1.16,4.15,7.18,4.17-2.37.68-.39c1.15-.65,1.16-2.8,0-4.78A5.88,5.88,0,0,0,276.19,77a2.07,2.07,0,0,0-2.08-.21l-.68.38L272.76,76A5.94,5.94,0,0,0,270.69,73.79Z" style="fill:#fff"></path></g><g id="freepik--characters-3--inject-47"><path d="M366.18,211.14c9.44,1.43,12.33,8.54,19.86,16.84l-4.94,11.26A33.94,33.94,0,0,1,369,226.71Z" style="fill:#455a64"></path><path d="M366.18,211.14c9.44,1.43,12.33,8.54,19.86,16.84l-4.94,11.26A33.94,33.94,0,0,1,369,226.71Z" style="fill:#fff;opacity:0.2"></path><path d="M387,219.16c-4.46.59-8.48,6.11-13.25,18.62l2.33,13.57,9.14-12.89Z" style="fill:#11888E"></path><path d="M387,219.16c-4.46.59-8.48,6.11-13.25,18.62l2.33,13.57,9.14-12.89Z" style="fill:#fff;opacity:0.2"></path><path d="M415.65,220.83c-.58-6.41-2.12-15.15-2.7-21.56a46.15,46.15,0,0,0-1.28-8.36,15.39,15.39,0,0,0-4.16-7.24,15.73,15.73,0,0,0-9.4-3.68,16.06,16.06,0,0,0-10.39,2.26c-3.79,2.55-5.81,7.19-6.05,11.76a20,20,0,0,0,2.7,11.12c1.39,2.39,4.9,2.53,7.64,2.89.63,3.27,1.42,6.6,2,9.87,3.38,1.07,6.78,2.44,10.3,2.81S412.54,222.52,415.65,220.83Z" style="fill:#11888E"></path><path d="M415.65,220.83c-.58-6.41-2.12-15.15-2.7-21.56a46.15,46.15,0,0,0-1.28-8.36,15.39,15.39,0,0,0-4.16-7.24,15.73,15.73,0,0,0-9.4-3.68,16.06,16.06,0,0,0-10.39,2.26c-3.79,2.55-5.81,7.19-6.05,11.76a20,20,0,0,0,2.7,11.12c1.39,2.39,4.9,2.53,7.64,2.89.63,3.27,1.42,6.6,2,9.87,3.38,1.07,6.78,2.44,10.3,2.81S412.54,222.52,415.65,220.83Z" style="opacity:0.25"></path><path d="M415.65,220.83c-.58-6.41-2.12-15.15-2.7-21.56a46.15,46.15,0,0,0-1.28-8.36,15.39,15.39,0,0,0-4.16-7.24,15.73,15.73,0,0,0-9.4-3.68,16.06,16.06,0,0,0-10.39,2.26c-3.79,2.55-5.81,7.19-6.05,11.76a20,20,0,0,0,2.7,11.12c1.39,2.39,4.9,2.53,7.64,2.89.63,3.27,1.42,6.6,2,9.87,3.38,1.07,6.78,2.44,10.3,2.81S412.54,222.52,415.65,220.83Z" style="fill:#fff;opacity:0.1"></path><path d="M369.92,364.77c-.13,3.1,0,6.75,0,6.75l-1.8.1a4.35,4.35,0,0,0-3.86,2.87l0,.11a1.7,1.7,0,0,1-2.1,1h0a1.69,1.69,0,0,1-1-.89l-.92-7.78Z" style="fill:#f28f8f"></path><path d="M372.57,391.77c4.71,2,11.94,2.4,14.94-2.41v1.3c-3,4.82-10.23,4.42-14.94,2.41s-3.69-5.31-7.92-7.08a11.51,11.51,0,0,1-4.13-2.6c0-.39-.08-.87-.14-1.42a14.7,14.7,0,0,0,4.27,2.72C368.88,386.46,367.85,389.75,372.57,391.77Z" style="fill:#37474f"></path><path d="M360.38,377.69a6.85,6.85,0,0,0,0-2.79,1.49,1.49,0,0,1,.22-1.23l.35-.35.17,1.44a1.7,1.7,0,0,0,3.13-.16l0-.11a4.35,4.35,0,0,1,3.86-2.87l1.83-.1a1.31,1.31,0,0,1,1.29.81c1.89,4.54,6.62,9.58,10.27,11.89,2.68-.06,6,2.17,6,4.87v.27c-3,4.81-10.23,4.42-14.94,2.41s-3.69-5.31-7.92-7.08a14.7,14.7,0,0,1-4.27-2.72A15.17,15.17,0,0,1,360.38,377.69Z" style="fill:#11888E"></path><path d="M369.51,381.41a.6.6,0,0,1-.93-.75,6.85,6.85,0,0,1,6.16-2.71c.25.32.51.62.77.93A6.59,6.59,0,0,0,369.51,381.41Z" style="fill:#fff"></path><path d="M367.65,379.33a.6.6,0,0,1-.84.07.59.59,0,0,1-.09-.82,7.19,7.19,0,0,1,6.43-2.78c.22.34.46.68.7,1A6.64,6.64,0,0,0,367.65,379.33Z" style="fill:#fff"></path><path d="M371.44,383.45a.6.6,0,0,1-.93-.75,6.83,6.83,0,0,1,6-2.72c.31.32.61.63.92.93A6.59,6.59,0,0,0,371.44,383.45Z" style="fill:#fff"></path><path d="M381.51,384.22c2.68-.06,6,2.17,6,4.87v.27c-3,4.74-10,4.43-14.73,2.49C373.14,385.37,379.37,384.2,381.51,384.22Z" style="fill:#fff"></path><path d="M373.43,385.39a.6.6,0,0,1-.93-.75,6.87,6.87,0,0,1,6-2.72c.37.34.75.65,1.12.95A6.68,6.68,0,0,0,373.43,385.39Z" style="fill:#fff"></path><path d="M344.84,370.51c-.13,3.1,0,6.75,0,6.75l-1.8.1a4.33,4.33,0,0,0-3.86,2.87l0,.11a1.71,1.71,0,0,1-2.11,1h0a1.68,1.68,0,0,1-1-.88l-.92-7.79Z" style="fill:#f28f8f"></path><path d="M347.48,397.5c4.72,2,11.95,2.41,14.94-2.4v1.3c-3,4.82-10.22,4.42-14.94,2.41s-3.68-5.31-7.91-7.08a11.51,11.51,0,0,1-4.13-2.6c0-.39-.08-.87-.14-1.43a14.21,14.21,0,0,0,4.27,2.73C343.8,392.2,342.77,395.49,347.48,397.5Z" style="fill:#37474f"></path><path d="M335.3,383.42a6.81,6.81,0,0,0,0-2.78,1.46,1.46,0,0,1,.22-1.23l.35-.35.17,1.44a1.68,1.68,0,0,0,1,.88,1.71,1.71,0,0,0,2.11-1l0-.11a4.33,4.33,0,0,1,3.86-2.87l1.83-.11a1.32,1.32,0,0,1,1.29.82c1.88,4.54,6.62,9.58,10.27,11.89,2.68-.06,6,2.16,6,4.87v.27c-3,4.81-10.22,4.42-14.94,2.4s-3.68-5.3-7.91-7.07a14.21,14.21,0,0,1-4.27-2.73A14.8,14.8,0,0,1,335.3,383.42Z" style="fill:#11888E"></path><path d="M344.43,387.15a.6.6,0,0,1-.84.07.59.59,0,0,1-.09-.82,6.85,6.85,0,0,1,6.16-2.71c.25.31.51.62.77.92A6.6,6.6,0,0,0,344.43,387.15Z" style="fill:#fff"></path><path d="M342.57,385.07a.6.6,0,0,1-.84.07.58.58,0,0,1-.09-.82,7.18,7.18,0,0,1,6.42-2.78c.23.34.47.67.71,1A6.62,6.62,0,0,0,342.57,385.07Z" style="fill:#fff"></path><path d="M346.36,389.19a.6.6,0,0,1-.93-.75,6.81,6.81,0,0,1,6-2.72c.3.32.61.63.92.93A6.58,6.58,0,0,0,346.36,389.19Z" style="fill:#fff"></path><path d="M356.43,390c2.68-.06,6,2.16,6,4.87v.27c-2.95,4.74-10,4.43-14.72,2.49C348.06,391.11,354.29,389.94,356.43,390Z" style="fill:#fff"></path><path d="M348.35,391.13a.6.6,0,0,1-.93-.75,6.83,6.83,0,0,1,6-2.72c.38.34.76.65,1.13.95A6.68,6.68,0,0,0,348.35,391.13Z" style="fill:#fff"></path><path d="M376,266.88l-.88,60.21-2.84,42.15c-7.19,4.54-14.62.24-14.62.24-2.73-20-2.84-32.31-1.35-40.62l-.88-32.15L354,330l-6.77,42.57c-7.37,4.79-15.4-.14-15.4-.14,0-15.31-1.57-33.5,2.65-44.53-3-34.11,2-60.32,2-60.32Z" style="fill:#37474f"></path><path d="M358.43,284.61l-3,12.1.42,15.53,4.46-25c6.42-2.51,7.26-6.05,7.26-6.05A19.78,19.78,0,0,1,358.43,284.61Z" style="opacity:0.30000000000000004"></path><path d="M377,266.55l0,6.4c-10.2,7.5-35.09,5.75-43.19,1.36l.83-6.57Z" style="fill:#455a64"></path><path d="M377,266.55l0,6.4c-10.2,7.5-35.09,5.75-43.19,1.36l.83-6.57Z" style="fill:#fff;opacity:0.30000000000000004"></path><path d="M334.68,267.74,377,266.55v2.66c-2.56,2.2-6,3.28-9.3,4a59.66,59.66,0,0,1-28.14-.91,2.38,2.38,0,0,0-3,2l-.14,1.16a18.54,18.54,0,0,1-2.61-1.13Z" style="opacity:0.2"></path><path d="M361.17,210.49l3.61.38a8.83,8.83,0,0,1,6.47,3.92c3.74,5.71,5.49,14.5,4.49,24-.76,7.24,1.24,15.91,2.92,21.6a8,8,0,0,1-4.64,9.7c-12.12,4.82-29.41,2.67-38.37-.26a5.41,5.41,0,0,1-3.29-7.31s3.36-14.94,2.72-16.44c-1.48-3.43-1.84-11.74-2.19-17a27.31,27.31,0,0,1,2.86-13.47l13.72-5.16Z" style="fill:#455a64"></path><path d="M361.17,210.49l3.61.38a8.83,8.83,0,0,1,6.47,3.92c3.74,5.71,5.49,14.5,4.49,24-.76,7.24,1.24,15.91,2.92,21.6a8,8,0,0,1-4.64,9.7c-12.12,4.82-29.41,2.67-38.37-.26a5.41,5.41,0,0,1-3.29-7.31s3.36-14.94,2.72-16.44c-1.48-3.43-1.84-11.74-2.19-17a27.31,27.31,0,0,1,2.86-13.47l13.72-5.16Z" style="fill:#fff;opacity:0.30000000000000004"></path><path d="M371.7,194.79a9.2,9.2,0,0,0,2.56-12.13,5,5,0,0,0,2.42-2.29,2.67,2.67,0,0,0-3.47-3.56,3.77,3.77,0,0,0-1.5-4.39,3.54,3.54,0,0,0-4.4.82,2.42,2.42,0,0,0-1.64-2.36,5,5,0,0,0-3.06.19c-1,.34-1.91.83-2.9,1.14a22.59,22.59,0,0,1-5.2.67,10.39,10.39,0,0,0-5,1.34c-1.47.95-2.77,3.18-2,5.1a2.86,2.86,0,0,0-2.09-1.11,2.77,2.77,0,0,0-2.14.91c1.1.68,2.16,1.41,3.25,2.08a3,3,0,0,0-3.34,1.34,6.62,6.62,0,0,0-.59,3.53,47.39,47.39,0,0,0,2.42,13.5c.75,2.25,1.83,4.64,4,5.68Z" style="fill:#263238"></path><path d="M349.41,201.4v9.37a4.44,4.44,0,0,0,1.49,3.32,12.58,12.58,0,0,0,9,3,3.15,3.15,0,0,0,1.86-.57,2.45,2.45,0,0,0,.6-2.55,5,5,0,0,0-.68-1.37,4.24,4.24,0,0,1-.74-2.38V201.4Z" style="fill:#f28f8f"></path><path d="M356.23,209a26.32,26.32,0,0,0,4.66.92V201.4H349.41v2a9.53,9.53,0,0,0,.94,1.64A11.47,11.47,0,0,0,356.23,209Z" style="fill:#e67575"></path><path d="M372.32,183.69a48,48,0,0,1-1.21,18.68,14.49,14.49,0,0,1-1.48,3.83,6.21,6.21,0,0,1-3,2.69,9.57,9.57,0,0,1-5,0c-3.05-.53-6.18-1.1-8.82-2.7s-4.75-4.5-4.49-7.58a5.27,5.27,0,0,1-5.06.28,5.35,5.35,0,0,1-2.77-4.29c-.12-1.72.88-3.65,2.57-4a3.72,3.72,0,0,1,3,.86,11.28,11.28,0,0,1,2.06,2.4,3.7,3.7,0,0,0,1,1.1,1.23,1.23,0,0,0,1.41,0,1.87,1.87,0,0,0,.41-1.54l-.18-3.91a1.56,1.56,0,0,1,.86-1.45,3.79,3.79,0,0,0,1.75-2,7.76,7.76,0,0,0,.5-2.35,1,1,0,0,1,1.32-.82A28.75,28.75,0,0,0,372.32,183.69Z" style="fill:#f28f8f"></path><polygon points="363.73 193.17 367.24 199.09 363.05 199.87 363.73 193.17" style="fill:#f28f8f"></polygon><polygon points="363.73 193.17 367.24 199.09 363.05 199.87 363.73 193.17" style="fill:#e67575"></polygon><path d="M359,201.91l3.19,1.55a2.1,2.1,0,0,1-2.42.69A1.89,1.89,0,0,1,359,201.91Z" style="fill:#f28f8f"></path><path d="M359,201.91l3.19,1.55a2.1,2.1,0,0,1-2.42.69A1.89,1.89,0,0,1,359,201.91Z" style="fill:#b85353"></path><path d="M360.89,204.25a2,2,0,0,1-1.11-.1,1.7,1.7,0,0,1-.85-1.68,2,2,0,0,1,2,1.78Z" style="fill:#f28f8f"></path><path d="M360.89,204.25a2,2,0,0,1-1.11-.1,1.7,1.7,0,0,1-.85-1.68,2,2,0,0,1,2,1.78Z" style="fill:#e67575"></path><path d="M357.66,193.41a1.2,1.2,0,1,0,1.32-1.08A1.2,1.2,0,0,0,357.66,193.41Z" style="fill:#263238"></path><path d="M367.75,194a1.21,1.21,0,0,0,1.08,1.32,1.2,1.2,0,0,0,.24-2.39A1.2,1.2,0,0,0,367.75,194Z" style="fill:#263238"></path><path d="M369.4,189.38l2.46,2.11a1.71,1.71,0,0,0-.32-1.93A2,2,0,0,0,369.4,189.38Z" style="fill:#263238"></path><path d="M359.16,188.21c-1,.52-1.9,1-2.84,1.57A1.71,1.71,0,0,1,357,188,2,2,0,0,1,359.16,188.21Z" style="fill:#263238"></path><path d="M430.54,384.76a3,3,0,0,0,2.58,0,6.72,6.72,0,0,0,3.44-3.89,22.73,22.73,0,0,0,1.05-5.8l.39-4a15.27,15.27,0,0,0,.11-3.82,4,4,0,0,0-1.5-2.66l-7.53-11.41-8.57,4.87,8.46,9.42a5.89,5.89,0,0,1,1.52,4l-.06,9a6.14,6.14,0,0,1-.77,3A1.87,1.87,0,0,0,430.54,384.76Z" style="fill:#8c5c5c"></path><path d="M441.09,368a4.61,4.61,0,0,0-4.48-3.36,4,4,0,0,1,1.5,2.66,12.38,12.38,0,0,1,0,3.16c-.18,1.74-.35,3.49-.52,5.23a20.43,20.43,0,0,1-1,5.22,6.72,6.72,0,0,1-3.44,3.89,3,3,0,0,1-2.58,0,1.87,1.87,0,0,1-.88-1.34,6.56,6.56,0,0,1-1.25,1.63,11.09,11.09,0,0,0-.84.88,2.79,2.79,0,0,0-.54,3,3.82,3.82,0,0,0,3,1.56,12.51,12.51,0,0,0,5.1-.11,6.47,6.47,0,0,0,4.05-2.93,10.3,10.3,0,0,0,1-4.22l.93-10.16c.09-1,.17-2.1.19-3.14A7.41,7.41,0,0,0,441.09,368Z" style="fill:#37474f"></path><path d="M377.8,399.85c4.57.22,9.65-4.41,11.91-6s3.75-1.55,4.83-6.63l4.35-18.1-10.5-2.35-2.23,18.93a6,6,0,0,1-2,3.73l-6.47,5.77a18.67,18.67,0,0,1-3.5,2.55l-.22.12C373.92,398.77,374.7,399.7,377.8,399.85Z" style="fill:#8c5c5c"></path><path d="M394.54,387.21c-1.08,5.08-2.57,5-4.83,6.63s-7.34,6.23-11.91,6c-3.1-.15-3.88-1.08-3.78-2l-3.24,1.83a3.16,3.16,0,0,0-.71,5l0,0a7,7,0,0,0,4.19,1.58,13.15,13.15,0,0,0,8.28-2.08c1.95-1.28,3.57-3.08,5.71-4a33.71,33.71,0,0,1,3.6-1,6.1,6.1,0,0,0,3.17-1.86,6.2,6.2,0,0,0,1-4.22A15.51,15.51,0,0,0,394.54,387.21Z" style="fill:#37474f"></path><path d="M411.2,327.58C418.26,305.78,430,287.14,420,269a38,38,0,0,1-37.71,2.74c-1.56,24.14,3.06,45,8,54.47-1.89,11.4-2.9,43.9-2.9,43.9,5.26,5,12,1.79,12,1.79L407,346.77s14.06,13.2,15.46,15a9.35,9.35,0,0,0,8.6-6.63C419.64,335.26,418,332.43,411.2,327.58Z" style="fill:#11888E"></path><path d="M411.2,327.58C418.26,305.78,430,287.14,420,269a38,38,0,0,1-37.71,2.74c-1.56,24.14,3.06,45,8,54.47-1.89,11.4-2.9,43.9-2.9,43.9,5.26,5,12,1.79,12,1.79L407,346.77s14.06,13.2,15.46,15a9.35,9.35,0,0,0,8.6-6.63C419.64,335.26,418,332.43,411.2,327.58Z" style="opacity:0.4"></path><path d="M411.2,327.58C418.26,305.78,430,287.14,420,269a38,38,0,0,1-37.71,2.74c-1.56,24.14,3.06,45,8,54.47-1.89,11.4-2.9,43.9-2.9,43.9,5.26,5,12,1.79,12,1.79L407,346.77s14.06,13.2,15.46,15a9.35,9.35,0,0,0,8.6-6.63C419.64,335.26,418,332.43,411.2,327.58Z" style="fill:#fff;opacity:0.2"></path><path d="M390.54,326.29c2.09-18.16,4.63-30.48,4.63-30.48-6.93-3.53-9.18-7.32-9.18-7.32,1.19,6.11,6.57,9.44,6.57,9.44C390.57,308.36,390.54,326.29,390.54,326.29Z" style="opacity:0.2"></path><path d="M407,346.77a38.52,38.52,0,0,0,.88-9.21l3.29-10-2,10.11c1,3.71.88,9.14.2,11.29Z" style="opacity:0.2"></path><path d="M380.62,244.84l1.8,10.57L379.29,307c16,10.64,42.61,2.32,46.43-1.09-.55-37-7.23-43.66-12.55-53.76,4.5-19,4.7-25.65.1-32.41a9.5,9.5,0,0,1-3.55-.9L386.56,220C381,231.6,380.27,233.31,380.62,244.84Z" style="fill:#11888E"></path><path d="M380.62,244.84l1.8,10.57L379.29,307c16,10.64,42.61,2.32,46.43-1.09-.55-37-7.23-43.66-12.55-53.76,4.5-19,4.7-25.65.1-32.41a9.5,9.5,0,0,1-3.55-.9L386.56,220C381,231.6,380.27,233.31,380.62,244.84Z" style="fill:#fff;opacity:0.4"></path><path d="M380.1,248.85l-.78-.22a3.37,3.37,0,0,0,0-1.19v-.14a3.05,3.05,0,0,1,.19-1.67l.73.36a2.46,2.46,0,0,0-.11,1.24v.13A3.76,3.76,0,0,1,380.1,248.85Z" style="fill:#11888E"></path><path d="M381.43,249.55l-.79-.22a3.37,3.37,0,0,0,0-1.19V248a3.22,3.22,0,0,1,.19-1.68l.74.36a2.51,2.51,0,0,0-.12,1.25l0,.13A4.16,4.16,0,0,1,381.43,249.55Z" style="fill:#11888E"></path><path d="M382.75,250.1l-.79-.22a3.19,3.19,0,0,0,0-1.2l0-.13a3.08,3.08,0,0,1,.2-1.67l.73.35a2.4,2.4,0,0,0-.11,1.25v.12A4,4,0,0,1,382.75,250.1Z" style="fill:#11888E"></path><path d="M384.17,250.32l-.79-.22a3.37,3.37,0,0,0,0-1.19v-.14a3.05,3.05,0,0,1,.19-1.67l.74.35a2.4,2.4,0,0,0-.12,1.25v.13A4,4,0,0,1,384.17,250.32Z" style="fill:#11888E"></path><path d="M385.58,250.45l-.79-.22a3.2,3.2,0,0,0,0-1.2v-.13a3.18,3.18,0,0,1,.19-1.68l.74.36a2.38,2.38,0,0,0-.11,1.25V249A4,4,0,0,1,385.58,250.45Z" style="fill:#11888E"></path><path d="M386.88,250.18l-.78-.22a3.37,3.37,0,0,0,0-1.19v-.14a3,3,0,0,1,.19-1.68l.73.36a2.46,2.46,0,0,0-.11,1.24v.14A3.76,3.76,0,0,1,386.88,250.18Z" style="fill:#11888E"></path><path d="M388.56,249.91l-.79-.23a3.37,3.37,0,0,0,0-1.19v-.14a3.07,3.07,0,0,1,.19-1.67l.74.36a2.46,2.46,0,0,0-.12,1.24l0,.14A4.17,4.17,0,0,1,388.56,249.91Z" style="fill:#11888E"></path><g style="opacity:0.51"><path d="M380.1,248.85l-.78-.22a3.37,3.37,0,0,0,0-1.19v-.14a3.05,3.05,0,0,1,.19-1.67l.73.36a2.46,2.46,0,0,0-.11,1.24v.13A3.76,3.76,0,0,1,380.1,248.85Z"></path><path d="M381.43,249.55l-.79-.22a3.37,3.37,0,0,0,0-1.19V248a3.22,3.22,0,0,1,.19-1.68l.74.36a2.51,2.51,0,0,0-.12,1.25l0,.13A4.16,4.16,0,0,1,381.43,249.55Z"></path><path d="M382.75,250.1l-.79-.22a3.19,3.19,0,0,0,0-1.2l0-.13a3.08,3.08,0,0,1,.2-1.67l.73.35a2.4,2.4,0,0,0-.11,1.25v.12A4,4,0,0,1,382.75,250.1Z"></path><path d="M384.17,250.32l-.79-.22a3.37,3.37,0,0,0,0-1.19v-.14a3.05,3.05,0,0,1,.19-1.67l.74.35a2.4,2.4,0,0,0-.12,1.25v.13A4,4,0,0,1,384.17,250.32Z"></path><path d="M385.58,250.45l-.79-.22a3.2,3.2,0,0,0,0-1.2v-.13a3.18,3.18,0,0,1,.19-1.68l.74.36a2.38,2.38,0,0,0-.11,1.25V249A4,4,0,0,1,385.58,250.45Z"></path><path d="M386.88,250.18l-.78-.22a3.37,3.37,0,0,0,0-1.19v-.14a3,3,0,0,1,.19-1.68l.73.36a2.46,2.46,0,0,0-.11,1.24v.14A3.76,3.76,0,0,1,386.88,250.18Z"></path><path d="M388.56,249.91l-.79-.23a3.37,3.37,0,0,0,0-1.19v-.14a3.07,3.07,0,0,1,.19-1.67l.74.36a2.46,2.46,0,0,0-.12,1.24l0,.14A4.17,4.17,0,0,1,388.56,249.91Z"></path></g><g style="opacity:0.1"><path d="M380.1,248.85l-.78-.22a3.37,3.37,0,0,0,0-1.19v-.14a3.05,3.05,0,0,1,.19-1.67l.73.36a2.46,2.46,0,0,0-.11,1.24v.13A3.76,3.76,0,0,1,380.1,248.85Z" style="fill:#fff"></path><path d="M381.43,249.55l-.79-.22a3.37,3.37,0,0,0,0-1.19V248a3.22,3.22,0,0,1,.19-1.68l.74.36a2.51,2.51,0,0,0-.12,1.25l0,.13A4.16,4.16,0,0,1,381.43,249.55Z" style="fill:#fff"></path><path d="M382.75,250.1l-.79-.22a3.19,3.19,0,0,0,0-1.2l0-.13a3.08,3.08,0,0,1,.2-1.67l.73.35a2.4,2.4,0,0,0-.11,1.25v.12A4,4,0,0,1,382.75,250.1Z" style="fill:#fff"></path><path d="M384.17,250.32l-.79-.22a3.37,3.37,0,0,0,0-1.19v-.14a3.05,3.05,0,0,1,.19-1.67l.74.35a2.4,2.4,0,0,0-.12,1.25v.13A4,4,0,0,1,384.17,250.32Z" style="fill:#fff"></path><path d="M385.58,250.45l-.79-.22a3.2,3.2,0,0,0,0-1.2v-.13a3.18,3.18,0,0,1,.19-1.68l.74.36a2.38,2.38,0,0,0-.11,1.25V249A4,4,0,0,1,385.58,250.45Z" style="fill:#fff"></path><path d="M386.88,250.18l-.78-.22a3.37,3.37,0,0,0,0-1.19v-.14a3,3,0,0,1,.19-1.68l.73.36a2.46,2.46,0,0,0-.11,1.24v.14A3.76,3.76,0,0,1,386.88,250.18Z" style="fill:#fff"></path><path d="M388.56,249.91l-.79-.23a3.37,3.37,0,0,0,0-1.19v-.14a3.07,3.07,0,0,1,.19-1.67l.74.36a2.46,2.46,0,0,0-.12,1.24l0,.14A4.17,4.17,0,0,1,388.56,249.91Z" style="fill:#fff"></path></g><path d="M388.86,217.77a9.2,9.2,0,0,0-5.2,4.12,21.81,21.81,0,0,0-2.44,6.31,71.22,71.22,0,0,0-2.17,17.68,15.87,15.87,0,0,0,10.3,2,45,45,0,0,1-2-11.89A94.29,94.29,0,0,1,388.86,217.77Z" style="fill:#11888E"></path><path d="M388.86,217.77a9.2,9.2,0,0,0-5.2,4.12,21.81,21.81,0,0,0-2.44,6.31,71.22,71.22,0,0,0-2.17,17.68,15.87,15.87,0,0,0,10.3,2,45,45,0,0,1-2-11.89A94.29,94.29,0,0,1,388.86,217.77Z" style="opacity:0.2"></path><path d="M388.86,217.77a9.2,9.2,0,0,0-5.2,4.12,21.81,21.81,0,0,0-2.44,6.31,71.22,71.22,0,0,0-2.17,17.68,15.87,15.87,0,0,0,10.3,2,45,45,0,0,1-2-11.89A94.29,94.29,0,0,1,388.86,217.77Z" style="fill:#fff;opacity:0.1"></path><path d="M385,226.44a10.06,10.06,0,0,0,.1,6.76,9.9,9.9,0,0,0,2.26,3.51c0-.25,0-.49,0-.73a94.29,94.29,0,0,1,1.53-18.21,7.46,7.46,0,0,0-.94.33,11.36,11.36,0,0,0-.59,2.65C386.94,222.76,385.67,224.5,385,226.44Z" style="opacity:0.2"></path><path d="M389.77,213.57a5.61,5.61,0,0,1,0,2.48,2.45,2.45,0,0,0-1.26.93,2.66,2.66,0,0,0-.46,1.55c.12,4.05-2.61,8-1.9,12a7.16,7.16,0,0,0,2.25,4.51,5.56,5.56,0,0,0,3.93,1,11.78,11.78,0,0,0,4-1.26,27.1,27.1,0,0,0,13.79-16,9.1,9.1,0,0,1-2.24-1.58,2.16,2.16,0,0,0-.7-1.54c-.42-.35-.92-.61-1.35-.95a5.73,5.73,0,0,1-1.91-3.48,17,17,0,0,1-.11-4A21.06,21.06,0,0,1,389.77,213.57Z" style="fill:#11888E"></path><path d="M389.77,213.57a5.61,5.61,0,0,1,0,2.48,2.45,2.45,0,0,0-1.26.93,2.66,2.66,0,0,0-.46,1.55c.12,4.05-2.61,8-1.9,12a7.16,7.16,0,0,0,2.25,4.51,5.56,5.56,0,0,0,3.93,1,11.78,11.78,0,0,0,4-1.26,27.1,27.1,0,0,0,13.79-16,9.1,9.1,0,0,1-2.24-1.58,2.16,2.16,0,0,0-.7-1.54c-.42-.35-.92-.61-1.35-.95a5.73,5.73,0,0,1-1.91-3.48,17,17,0,0,1-.11-4A21.06,21.06,0,0,1,389.77,213.57Z" style="opacity:0.2"></path><path d="M389.77,213.57a5.61,5.61,0,0,1,0,2.48,2.45,2.45,0,0,0-1.26.93,2.66,2.66,0,0,0-.46,1.55c.12,4.05-2.61,8-1.9,12a7.16,7.16,0,0,0,2.25,4.51,5.56,5.56,0,0,0,3.93,1,11.78,11.78,0,0,0,4-1.26,27.1,27.1,0,0,0,13.79-16,9.1,9.1,0,0,1-2.24-1.58,2.16,2.16,0,0,0-.7-1.54c-.42-.35-.92-.61-1.35-.95a5.73,5.73,0,0,1-1.91-3.48,17,17,0,0,1-.11-4A21.06,21.06,0,0,1,389.77,213.57Z" style="fill:#fff;opacity:0.1"></path><path d="M407.29,217.41a18.31,18.31,0,0,1-12.54,4.93,7.73,7.73,0,0,1-3.62-.75,3.66,3.66,0,0,1-2-2.92,4,4,0,0,0,.85,3.25,5.57,5.57,0,0,0,2.85,1.72,9.72,9.72,0,0,0,3.36.18A16.58,16.58,0,0,0,407.29,217.41Z" style="opacity:0.2"></path><path d="M396.91,215.06a9.75,9.75,0,0,0,6.3-7.34,21,21,0,0,1-13.44,5.85,5.6,5.6,0,0,1,.08,2A16.28,16.28,0,0,0,396.91,215.06Z" style="opacity:0.2"></path><path d="M398.34,192.91a14.35,14.35,0,0,0-5-1.93,11.24,11.24,0,0,0-6.25.2,6,6,0,0,0-3.17,2.81,43.28,43.28,0,0,0,.46,15.88,5.62,5.62,0,0,0,5.47,4.41,44.83,44.83,0,0,0,6.55-.4,9.31,9.31,0,0,0,8-8.74,25.43,25.43,0,0,0,0-3.15,28.27,28.27,0,0,0-1.45-3.67A13.55,13.55,0,0,0,398.34,192.91Z" style="fill:#8c5c5c"></path><path d="M392.06,187.24c-.76,0-1.47.08-2.12.15a6.74,6.74,0,0,0-5.72,5c-.14.51-.25,1-.35,1.59a6,6,0,0,1,3.17-2.81,11.24,11.24,0,0,1,6.25-.2,14.35,14.35,0,0,1,5,1.93,13.55,13.55,0,0,1,4.5,5.41,28.27,28.27,0,0,1,1.45,3.67,34.93,34.93,0,0,0-1.05-6.35A11.17,11.17,0,0,0,392.06,187.24Z" style="fill:#fff"></path><polygon points="391.2 199.05 387.07 204.06 390.86 205.4 391.2 199.05" style="fill:#734242"></polygon><path d="M394.34,207.89l-3.2,1a2,2,0,0,0,2.16,1A1.78,1.78,0,0,0,394.34,207.89Z" style="fill:#633232"></path><path d="M392.25,209.8a1.89,1.89,0,0,0,1.05.06,1.59,1.59,0,0,0,1-1.44,1.88,1.88,0,0,0-1.23.22A1.86,1.86,0,0,0,392.25,209.8Z" style="fill:#734242"></path><path d="M396.83,200.15a1.14,1.14,0,1,1-1.07-1.2A1.14,1.14,0,0,1,396.83,200.15Z" style="fill:#263238"></path><path d="M387.32,199.27a1.13,1.13,0,1,1-1.07-1.19A1.12,1.12,0,0,1,387.32,199.27Z" style="fill:#263238"></path><path d="M386.46,194.7l-2.61,1.6a1.63,1.63,0,0,1,.59-1.75A1.9,1.9,0,0,1,386.46,194.7Z" style="fill:#263238"></path><path d="M396.18,195.08l2.43,1.87a1.61,1.61,0,0,0-.4-1.8A1.92,1.92,0,0,0,396.18,195.08Z" style="fill:#263238"></path><path d="M380.11,258.57c-2.59,3.14-2,7.51,0,9.27C386.38,262.72,380.11,258.57,380.11,258.57Z" style="fill:#11888E"></path><path d="M380.11,258.57c-2.59,3.14-2,7.51,0,9.27C386.38,262.72,380.11,258.57,380.11,258.57Z" style="opacity:0.30000000000000004"></path><path d="M381.63,262.61a7,7,0,0,0-1.52-4l-1.06.29a3.35,3.35,0,0,1-2.69-.41l-1.8-1.12a4.51,4.51,0,0,0-2-.68,16.33,16.33,0,0,1-4.31-1,1.3,1.3,0,0,0-1.69.76,1.32,1.32,0,0,0,.37,1.48,5.28,5.28,0,0,0,3.78,1.36c-3,1.46-7.4.62-9.4.1a1.26,1.26,0,0,0-.75,2.41l1,.37c-1.06,3.61,1.46,5.56,5,6.33,3.32.72,7.91.27,13.08-1.56a14.13,14.13,0,0,1,1.61-.44A14.54,14.54,0,0,0,381.63,262.61Z" style="fill:#8c5c5c"></path><path d="M417.66,220.54a16.12,16.12,0,0,0-4.38-.79c-4.08,1.66-4.75,5.35-6.64,10.22s-8.94,22.89-8.94,22.89-11.16,3.9-17.59,5.71c.93,1.1.89,3.07,1,4.52a10.29,10.29,0,0,1-1,4.75l23.37-5.69a9.82,9.82,0,0,0,6.63-5.54C419.09,236.45,423.17,222.47,417.66,220.54Z" style="fill:#11888E"></path><path d="M417.66,220.54a16.12,16.12,0,0,0-4.38-.79c-4.08,1.66-4.75,5.35-6.64,10.22s-8.94,22.89-8.94,22.89-11.16,3.9-17.59,5.71c.93,1.1.89,3.07,1,4.52a10.29,10.29,0,0,1-1,4.75l23.37-5.69a9.82,9.82,0,0,0,6.63-5.54C419.09,236.45,423.17,222.47,417.66,220.54Z" style="fill:#fff;opacity:0.2"></path><path d="M355.36,291.67a45,45,0,0,1-6.87-7.78c1.47.44,2.93.9,4.39,1.35a1.56,1.56,0,0,0,1.84-.73l0,0a1.64,1.64,0,0,0-.46-2.1,30.82,30.82,0,0,0-10.09-4.83c-.39-.5-.8-1.06-1.22-1.64a7.24,7.24,0,0,1-5.84,4.85l1.48,1.77a27.68,27.68,0,0,0,4.37,8.95,8.1,8.1,0,0,0,6.78,3.28l4.52-.16a1.69,1.69,0,0,0,1.36-.76v0A1.67,1.67,0,0,0,355.36,291.67Z" style="fill:#f28f8f"></path><path d="M343.84,275.44c-5.55-7.83-13.85-22-13.85-22,6.6-21,9.44-27.13,6.31-37.95l-1.95.35a12.67,12.67,0,0,0-10.08,9.68l-6.41,28.91a10.07,10.07,0,0,0,1.77,8.26L335,281.07a7.1,7.1,0,0,0,5.8-1.48A9.68,9.68,0,0,0,343.84,275.44Z" style="fill:#455a64"></path><path d="M343.84,275.44c-5.55-7.83-13.85-22-13.85-22,6.6-21,9.44-27.13,6.31-37.95l-1.95.35a12.67,12.67,0,0,0-10.08,9.68l-6.41,28.91a10.07,10.07,0,0,0,1.77,8.26L335,281.07a7.1,7.1,0,0,0,5.8-1.48A9.68,9.68,0,0,0,343.84,275.44Z" style="fill:#fff;opacity:0.2"></path><path d="M413.17,252.14l-.06,6.27-2.22,3.4a1.55,1.55,0,0,0,.28,2h0a1.56,1.56,0,0,0,2.17-.14l.5-.56,3.49,2.33a2.08,2.08,0,0,0,2.83-.48h0a4.46,4.46,0,0,0,.88-2.93l-.19-3a9.44,9.44,0,0,0-3.09-6.41l-3.89-3.51Z" style="fill:#f28f8f"></path></g><g id="freepik--characters-2--inject-47"><path d="M237.05,141.53l4.46-.08a10.31,10.31,0,0,1,9.38,6l8.26,18.14c7.52,2.13,12.72,6.13,19.61,6.65,1.34,0,6.05-2.35,7.9-3.3a.68.68,0,0,1,1,.44h0a1.73,1.73,0,0,1-.63,1.8l-2.19,1.65c4.42.94,7.89-1.62,9.42.37s.45,5.11-4.31,6.75-10.85.8-16.86-.56-19.41-5.34-19.41-5.34C242,162.79,237.05,141.53,237.05,141.53Z" style="fill:#ffa8a7"></path><path d="M237.05,141.53c9.33-1.44,12.83,2.72,14.38,6s7.95,17.61,7.95,17.61a62.53,62.53,0,0,1,11.79,5.23c-3.37,3.86-2.48,7.11-1.74,8.15a106,106,0,0,1-14.85-2.85,6.87,6.87,0,0,1-3.18-2C239.49,160,236.89,142.72,237.05,141.53Z" style="fill:#11888E"></path><path d="M237.05,141.53c9.33-1.44,12.83,2.72,14.38,6s7.95,17.61,7.95,17.61a62.53,62.53,0,0,1,11.79,5.23c-3.37,3.86-2.48,7.11-1.74,8.15a106,106,0,0,1-14.85-2.85,6.87,6.87,0,0,1-3.18-2C239.49,160,236.89,142.72,237.05,141.53Z" style="fill:#fff;opacity:0.2"></path><path d="M267.88,144.84c-5.05-.76-9.08,7.59-12.7,15-2.85,5.87-5.91,11.17-5.91,11.17L242.2,170l-2.6,10.9,10.26,2.4a7.44,7.44,0,0,0,8.47-4.17l7.57-16.66Z" style="fill:#c27a7a"></path><path d="M210.45,312.93a2.9,2.9,0,0,1-5.49-.26,9.21,9.21,0,0,1-.5-3.31c-.08-3.74,0-7.49.27-11.22a38.06,38.06,0,0,0,7.83.82l-1.2,10.35A9.48,9.48,0,0,1,210.45,312.93Z" style="fill:#ffa8a7"></path><path d="M202.28,307.55c1-3.12,2-6.31,1.8-9.56l.65.15c-.25,3.73-.35,7.48-.27,11.22a9.21,9.21,0,0,0,.5,3.31,2.9,2.9,0,0,0,5.49.26,9.48,9.48,0,0,0,.91-3.62l1.2-10.35h.83c-.7,3.87-.2,7.85.05,11.78s.2,8-1.49,11.59A5.23,5.23,0,0,1,210,324.7a3.92,3.92,0,0,1-3.11.28,6.78,6.78,0,0,1-2.7-1.67,11.08,11.08,0,0,1-3.28-6.16C200.4,313.94,201.31,310.66,202.28,307.55Z" style="fill:#11888E"></path><path d="M243.09,304.56l-.64,3.86a9.55,9.55,0,0,1-4-3.1c-.08-3-.05-6,0-7.49.81,1.8,2.6,3,3.71,4.68A9.73,9.73,0,0,1,243.09,304.56Z" style="fill:#11888E"></path><path d="M244.07,308l-1.62.42.64-3.86C243.49,305.67,243.75,306.85,244.07,308Z" style="fill:#11888E"></path><path d="M243.09,304.56l-.64,3.86a9.55,9.55,0,0,1-4-3.1c-.08-3-.05-6,0-7.49.81,1.8,2.6,3,3.71,4.68A9.73,9.73,0,0,1,243.09,304.56Z" style="opacity:0.2"></path><path d="M244.07,308l-1.62.42.64-3.86C243.49,305.67,243.75,306.85,244.07,308Z" style="opacity:0.30000000000000004"></path><path d="M238.23,293.55a16.21,16.21,0,0,1,1.27-2.94,8.52,8.52,0,0,0,1.42,4.45c1.1,1.77,2.57,3.3,3.63,5.11,1.29,2.19,1.95,4.77,3.65,6.67a8,8,0,0,0,6.66,2.6,3.5,3.5,0,0,0,2.45-1.1,1.92,1.92,0,0,0,.4-1.16,18,18,0,0,0,2.75,2.41c1.11.78,2.45,1.59,2.63,2.94a2.89,2.89,0,0,1-1.6,2.74,7.5,7.5,0,0,1-3.25.72,20.57,20.57,0,0,1-7.17-.61,10,10,0,0,1-5.72-4.15,13.11,13.11,0,0,1-1.28-3.23c-.32-1.15-.58-2.33-1-3.44a9.73,9.73,0,0,0-1-2.05c-1.11-1.66-2.9-2.88-3.71-4.68,0-.1-.1-.19-.13-.29A6.4,6.4,0,0,1,238.23,293.55Z" style="fill:#11888E"></path><path d="M254.86,309.44a8,8,0,0,1-6.66-2.6c-1.7-1.9-2.36-4.48-3.65-6.67-1.06-1.81-2.53-3.34-3.63-5.11a8.52,8.52,0,0,1-1.42-4.45c.13-.25.26-.5.4-.75,3.33.6,7,.8,10.18,1.89a64.2,64.2,0,0,0,3.75,9.81,24.8,24.8,0,0,0,3.88,5.62,1.92,1.92,0,0,1-.4,1.16A3.5,3.5,0,0,1,254.86,309.44Z" style="fill:#ffa8a7"></path><path d="M245.82,170.53l.54,8.46c6.37,26.25,4.47,65.48,4.47,65.48l-.2,47.84a8.14,8.14,0,0,1-11.33-2.46c-1.08-11.76-6.55-30.25-4.91-44.68-2.19-11.38-3.83-27.57-3.83-27.57l-5.36,28-11.15,54c-4.93,2.08-9.3.66-10.72-1.25,1.14-29.81.65-44.14,5.25-57.92-1.43-37-1.86-53.68,7.15-66.38l-.11-4.79Z" style="fill:#11888E"></path><path d="M245.82,170.53l.54,8.46c6.37,26.25,4.47,65.48,4.47,65.48l-.2,47.84a8.14,8.14,0,0,1-11.33-2.46c-1.08-11.76-6.55-30.25-4.91-44.68-2.19-11.38-3.83-27.57-3.83-27.57l-5.36,28-11.15,54c-4.93,2.08-9.3.66-10.72-1.25,1.14-29.81.65-44.14,5.25-57.92-1.43-37-1.86-53.68,7.15-66.38l-.11-4.79Z" style="opacity:0.30000000000000004"></path><path d="M231.78,211.37a20.9,20.9,0,0,0,9.13-4.09,9.16,9.16,0,0,1-6.68,6l-2.81,11.67-.85-7.22Z" style="opacity:0.2"></path><path d="M234.72,141.14l3.23.24a4.12,4.12,0,0,1,3.11,1.81l7.47,11.05a8.94,8.94,0,0,1-.59,10.8h0a5.26,5.26,0,0,0-1.2,4.06l3.81,29.2c-14.66,10.89-37.1,6.44-43.77,2.89a48.37,48.37,0,0,1,6.52-23.54,13.51,13.51,0,0,0,1.29-10.31l-2.14-7.59,6.41-18.06Z" style="fill:#11888E"></path><path d="M234.72,141.14l3.23.24a4.12,4.12,0,0,1,3.11,1.81l7.47,11.05a8.94,8.94,0,0,1-.59,10.8h0a5.26,5.26,0,0,0-1.2,4.06l3.81,29.2c-14.66,10.89-37.1,6.44-43.77,2.89a48.37,48.37,0,0,1,6.52-23.54,13.51,13.51,0,0,0,1.29-10.31l-2.14-7.59,6.41-18.06Z" style="fill:#fff;opacity:0.4"></path><path d="M244.33,123.6a10.38,10.38,0,0,0,1.25-13,3.5,3.5,0,0,0-.63-6.71,9.88,9.88,0,0,0-3.78.54,18.44,18.44,0,0,1-6.5,0c-2.16-.31-4.29-.78-6.47-.94a13.26,13.26,0,0,0-6.4.91,7.2,7.2,0,0,0-4.14,4.76c-1.67-.45-3.67.62-4.74,2a8.32,8.32,0,0,0-1.56,4.88c-.07,1.73.17,3.46.26,5.19a11.78,11.78,0,0,1-.66,5.11c-.78,1.87-2.33,3.4-2.82,5.37a5.39,5.39,0,0,0,6.6,6.53,14.24,14.24,0,0,1-.5-4.21c.17,1.91,2.07,3.4,3.87,4a15.25,15.25,0,0,0,5.68.5l6.74-.27,7.84-.31a10.73,10.73,0,0,0,4.1-.7,7,7,0,0,0,3.65-6A18.24,18.24,0,0,0,244.33,123.6Z" style="fill:#e0e0e0"></path><path d="M234.72,134.53v7.16s5.86,3.74,3.39,5.72c-4.65,3.74-14.61-5.76-14.61-5.76V129.74Z" style="fill:#ffa8a7"></path><path d="M223.5,129.74c1.73,5.13,8,9,11.22,9.79v-5Z" style="fill:#f28f8f"></path><path d="M224.84,121.6a10.57,10.57,0,0,1,.13,2.69,3.21,3.21,0,0,1-.89,1.81,2,2,0,0,1-1.82.53,3.52,3.52,0,0,0-6.83-1.67,4.45,4.45,0,0,0,.74,3.66,8.14,8.14,0,0,0,2.94,2.45,3,3,0,0,0,3.54-1.39c3.42,4.34,9.39,7.59,15,7.12a7.92,7.92,0,0,0,4.25-1.5c2.11-1.63,2.27-4.1,2.54-6.54a34.82,34.82,0,0,0-.08-9.29,18.21,18.21,0,0,0-5.87-11.18C236.55,117.52,228.08,120.92,224.84,121.6Z" style="fill:#ffa8a7"></path><polygon points="236.48 120.55 240.31 125.26 236.75 126.49 236.48 120.55" style="fill:#f28f8f"></polygon><path d="M233.48,128.78l3,.95a1.85,1.85,0,0,1-2,.91A1.66,1.66,0,0,1,233.48,128.78Z" style="fill:#f28f8f"></path><path d="M233.48,128.78l3,.95a1.85,1.85,0,0,1-2,.91A1.66,1.66,0,0,1,233.48,128.78Z" style="opacity:0.30000000000000004"></path><path d="M235.42,130.59a1.74,1.74,0,0,1-1,0,1.51,1.51,0,0,1-1-1.36,1.83,1.83,0,0,1,1.15.22A1.75,1.75,0,0,1,235.42,130.59Z" style="fill:#f28f8f"></path><path d="M231.21,121.53a1.06,1.06,0,1,0,1-1.11A1.06,1.06,0,0,0,231.21,121.53Z" style="fill:#263238"></path><path d="M240.1,120.78a1.07,1.07,0,0,0,2.13-.09,1.07,1.07,0,0,0-2.13.09Z" style="fill:#263238"></path><path d="M241,116.51l2.42,1.53a1.52,1.52,0,0,0-.53-1.65A1.8,1.8,0,0,0,241,116.51Z" style="fill:#ebebeb"></path><path d="M218.86,141.69c1,10.05-2.47,15-11.66,32.44,0,0,2.13,12.85,5.91,20.09,3.76,1.53,5.64,4.13,7.81,5.23a.72.72,0,0,1,.3,1c-.88,1.39-3.2.32-5.31-.89,2.69,4.37,3.46,5.09,4.82,6.45s.43,3.58-3.27,3.58-5.79-2.9-6.48-3.88-5.32-10.26-5.32-10.26l-8.36-16.8a9,9,0,0,1-.22-7.56l9.56-22.49a11.36,11.36,0,0,1,10.45-6.91Z" style="fill:#ffa8a7"></path><path d="M218.86,141.69c3.35,11.36-9.66,29.49-11.3,32.41,1.06,2.45,2.55,12.41,2.55,12.41-5.33.64-7.2,3.41-7.2,3.41l-5.5-9.76a11.41,11.41,0,0,1-.54-10.15c2.65-6.13,7-16.11,9.14-21.24C209.28,141.05,216,141.61,218.86,141.69Z" style="fill:#11888E"></path><path d="M218.86,141.69c3.35,11.36-9.66,29.49-11.3,32.41,1.06,2.45,2.55,12.41,2.55,12.41-5.33.64-7.2,3.41-7.2,3.41l-5.5-9.76a11.41,11.41,0,0,1-.54-10.15c2.65-6.13,7-16.11,9.14-21.24C209.28,141.05,216,141.61,218.86,141.69Z" style="fill:#fff;opacity:0.2"></path><path d="M304.9,327a5.53,5.53,0,0,1-5.2,1,6.33,6.33,0,0,1-3.58-4,14.63,14.63,0,0,1-.72-4,14.7,14.7,0,0,0,.56,5.49,7.54,7.54,0,0,0,2.05,3.52,7.27,7.27,0,0,0,7.44-.13c1.62-1.22,1.61-3.82,1.93-5.77A7.75,7.75,0,0,1,304.9,327Z" style="fill:#37474f"></path><path d="M295.57,321.74a11.39,11.39,0,0,0,.55,2.36,6.33,6.33,0,0,0,3.58,4,5.53,5.53,0,0,0,5.2-1,7.75,7.75,0,0,0,2.48-3.82c0-.27.07-.55.09-.82s0-.51,0-.77a8.57,8.57,0,0,0-11.93.12Z" style="fill:#fff"></path><path d="M306.5,315.8a43.33,43.33,0,0,1-1.66-6.5c-.36-2.75-.07-5.75-1.65-8.09a5.24,5.24,0,0,0-1.9-.35c-1.51.21-3.17.48-4.68.69a7.64,7.64,0,0,0-.71,5.71c1,3.53-.16,7.51-.4,11.15,0,.56-.08,1.12-.1,1.69s.09,1.09.17,1.64a8.57,8.57,0,0,1,11.93-.12A20.43,20.43,0,0,0,306.5,315.8Z" style="fill:#37474f"></path><path d="M297.34,318.7a.52.52,0,0,1-.47-.28.53.53,0,0,1,.22-.72,9.56,9.56,0,0,1,8-.39.52.52,0,0,1,.29.7.53.53,0,0,1-.69.29,8.44,8.44,0,0,0-7.13.34A.57.57,0,0,1,297.34,318.7Z" style="fill:#fff"></path><path d="M297.54,315.72a.53.53,0,0,1-.47-.28.53.53,0,0,1,.22-.72,9.06,9.06,0,0,1,7.63-.37.53.53,0,1,1-.41,1,8,8,0,0,0-6.72.33A.54.54,0,0,1,297.54,315.72Z" style="fill:#fff"></path><path d="M297.54,313a.53.53,0,0,1-.47-.28.53.53,0,0,1,.22-.72,8.43,8.43,0,0,1,7.11-.35.53.53,0,0,1-.4,1,7.38,7.38,0,0,0-6.21.3A.54.54,0,0,1,297.54,313Z" style="fill:#fff"></path><path d="M297.54,310a.53.53,0,0,1-.47-.28.54.54,0,0,1,.22-.73,7.65,7.65,0,0,1,6.41-.3.52.52,0,0,1,.28.69.53.53,0,0,1-.69.29,6.57,6.57,0,0,0-5.5.27A.54.54,0,0,1,297.54,310Z" style="fill:#fff"></path><path d="M292.88,288.68l3.37,13.42v1.68a3.86,3.86,0,0,0,.67,2.16h0v-1.53a1,1,0,0,1,.58-1,8.7,8.7,0,0,1,4.7-.26,1.05,1.05,0,0,1,.88,1l.1,1.76.05-.08a3.83,3.83,0,0,0,.42-2.23l-.22-1.95.15-13.28Z" style="fill:#c27a7a"></path><path d="M286.71,110.12a6.43,6.43,0,0,1,6.48-4.92,8.18,8.18,0,0,1,6.85,4.9,11.27,11.27,0,0,1,0,8.63c-.58,1.5-1.43,2.89-1.95,4.41a6,6,0,0,0,.07,4.69,3.14,3.14,0,0,0,4.06,1.48,5,5,0,0,1-5.36.06,5.86,5.86,0,0,1-2.73-5.18C291.59,119.67,289.23,114.63,286.71,110.12Z" style="fill:#263238"></path><path d="M282.33,138.9A15.3,15.3,0,0,0,294,129a18,18,0,0,0-1.9-15.4,17.19,17.19,0,0,0-9.69-7.49c-4-1.13-8.92-.64-12.24,1.9a6.18,6.18,0,0,0-6.08,2.81,10.2,10.2,0,0,0-1.35,6.83,30.75,30.75,0,0,0,1.94,6.81C267.29,131.51,275.37,136.06,282.33,138.9Z" style="fill:#263238"></path><path d="M271.62,305a6.61,6.61,0,0,1,0-2.69,1.44,1.44,0,0,0-.21-1.19l-.34-.34-.16,1.39a1.68,1.68,0,0,1-1,.86,1.66,1.66,0,0,1-2-1l0-.11a4.22,4.22,0,0,0-3.73-2.78l-1.77-.09a1.28,1.28,0,0,0-1.25.78,24.72,24.72,0,0,1-4.95,7.24A28.44,28.44,0,0,1,253,310c-.5.4-1,.76-1.54,1.13l-.29.2a9.34,9.34,0,0,1,9.12,7c4-2,3.25-5,7.19-6.62a14,14,0,0,0,4.14-2.63A15.34,15.34,0,0,0,271.62,305Z" style="fill:#37474f"></path><path d="M256.45,312.94a9.54,9.54,0,0,0-5.28-1.59,2.53,2.53,0,0,1-.52.26l-1.18.46a11.89,11.89,0,0,0-1.77.92,6.26,6.26,0,0,0-1.6,1.48,5,5,0,0,0-.55.92,2,2,0,0,0-.16.9c2.9,4.66,9.88,4.28,14.44,2.33a4.91,4.91,0,0,0,.46-.22A9.55,9.55,0,0,0,256.45,312.94Z" style="fill:#fff"></path><path d="M262.39,288.4c.12,3,0,10.65,0,10.65l1.74.09a4.22,4.22,0,0,1,3.73,2.78l0,.11a1.66,1.66,0,0,0,2,1h0a1.68,1.68,0,0,0,1-.86l1.82-13.78Z" style="fill:#c27a7a"></path><path d="M259.83,318.62c-4.56,1.95-11.54,2.33-14.44-2.33v1.26c2.9,4.66,9.88,4.28,14.44,2.33s3.57-5.13,7.65-6.84a11,11,0,0,0,4-2.52c0-.37.08-.84.15-1.37a14,14,0,0,1-4.14,2.63C263.4,313.49,264.4,316.67,259.83,318.62Z" style="fill:#37474f"></path><path d="M262.79,308.61a.58.58,0,0,0,.9-.72,6.6,6.6,0,0,0-6-2.62c-.24.3-.49.6-.75.89A6.37,6.37,0,0,1,262.79,308.61Z" style="fill:#fff"></path><path d="M264.59,306.6a.57.57,0,0,0,.8.07.58.58,0,0,0,.1-.8,6.94,6.94,0,0,0-6.22-2.68l-.68,1A6.43,6.43,0,0,1,264.59,306.6Z" style="fill:#fff"></path><path d="M260.92,310.58a.58.58,0,0,0,.9-.73,6.59,6.59,0,0,0-5.8-2.62c-.3.31-.59.61-.89.9A6.37,6.37,0,0,1,260.92,310.58Z" style="fill:#fff"></path><path d="M259,312.46a.58.58,0,0,0,.81.07.57.57,0,0,0,.09-.8,6.58,6.58,0,0,0-5.81-2.62c-.36.32-.73.62-1.09.91A6.45,6.45,0,0,1,259,312.46Z" style="fill:#fff"></path><path d="M261.86,284.91l-.6.27.42,3.43c2.93,2.9,10.48,1.45,11.61.47l.83-3.93-.53-.42Z" style="fill:#37474f"></path><path d="M303.85,284.92l.6.24-.22,3.45c-2.77,3.06-10.7,2.05-11.88,1.13l-1-3.7.76-.66Z" style="fill:#37474f"></path><path d="M263.14,184.81c-3,28-3,57.28-3,57.28l1.72,42.82c5.09,3.49,11.61.47,11.61.47,4-21.08,3.37-28.55,2.78-35.89,2.72-11.61,4.26-23.58,4.26-23.58l4.15,25.71L292,286c4.52,1.6,10.88.09,11.95-.93.86-21-2.81-34.8-2.81-34.8.59-22.67,9-51.33-2.4-68Z" style="fill:#455a64"></path><path d="M263.14,184.81c-3,28-3,57.28-3,57.28l1.72,42.82c5.09,3.49,11.61.47,11.61.47,4-21.08,3.37-28.55,2.78-35.89,2.72-11.61,4.26-23.58,4.26-23.58l4.15,25.71L292,286c4.52,1.6,10.88.09,11.95-.93.86-21-2.81-34.8-2.81-34.8.59-22.67,9-51.33-2.4-68Z" style="opacity:0.2"></path><path d="M263.14,184.81c-3,28-3,57.28-3,57.28l1.72,42.82c5.09,3.49,11.61.47,11.61.47,4-21.08,3.37-28.55,2.78-35.89,2.72-11.61,4.26-23.58,4.26-23.58l4.15,25.71L292,286c4.52,1.6,10.88.09,11.95-.93.86-21-2.81-34.8-2.81-34.8.59-22.67,9-51.33-2.4-68Z" style="fill:#fff;opacity:0.1"></path><path d="M280.69,188.3a36.32,36.32,0,0,0,18-6.07,46.33,46.33,0,0,0-5.15-7.4l-29.77,2.67q-.45,3.7-.67,7.31A36.18,36.18,0,0,0,280.69,188.3Z" style="fill:#c27a7a"></path><path d="M270.16,151.37a4.92,4.92,0,0,0,3.19.85,17.82,17.82,0,0,0,14.21-7.05l-3.16-.27V134.74l-11,4.24v5.86h-2.81a8.24,8.24,0,0,0-1.34,2.38A3.86,3.86,0,0,0,270.16,151.37Z" style="fill:#c27a7a"></path><path d="M283.63,135a13,13,0,0,1-10.21,8V139Z" style="fill:#ab5c5c"></path><path d="M282.45,126.92a10.09,10.09,0,0,0-.13,2.57,3.11,3.11,0,0,0,.86,1.72,1.91,1.91,0,0,0,1.73.51,3.35,3.35,0,0,1,6.51-1.59,4.21,4.21,0,0,1-.7,3.49,7.9,7.9,0,0,1-2.8,2.33,2.84,2.84,0,0,1-3.39-1.32c-3.26,4.13-8.95,7.23-14.28,6.79A7.63,7.63,0,0,1,266.2,140c-2-1.56-2.16-3.91-2.42-6.24a33.27,33.27,0,0,1,.07-8.86,17.41,17.41,0,0,1,5.6-10.66C271.28,123,279.35,126.27,282.45,126.92Z" style="fill:#c27a7a"></path><polygon points="271.35 125.92 267.7 130.42 271.09 131.58 271.35 125.92" style="fill:#f28f8f"></polygon><polygon points="271.35 125.92 267.7 130.42 271.09 131.58 271.35 125.92" style="fill:#ab5c5c"></polygon><path d="M274.21,133.77l-2.84.9a1.74,1.74,0,0,0,1.92.87A1.58,1.58,0,0,0,274.21,133.77Z" style="fill:#f28f8f"></path><path d="M274.21,133.77l-2.84.9a1.74,1.74,0,0,0,1.92.87A1.58,1.58,0,0,0,274.21,133.77Z" style="fill:#874545"></path><path d="M272.36,135.49a1.57,1.57,0,0,0,.93,0,1.41,1.41,0,0,0,.92-1.29,1.63,1.63,0,0,0-1.1.21A1.67,1.67,0,0,0,272.36,135.49Z" style="fill:#ab5c5c"></path><path d="M276.37,126.85a1,1,0,1,1-1-1A1,1,0,0,1,276.37,126.85Z" style="fill:#263238"></path><path d="M267.89,126.14a1,1,0,1,1-1-1A1,1,0,0,1,267.89,126.14Z" style="fill:#263238"></path><path d="M267.09,122.07l-2.31,1.45a1.44,1.44,0,0,1,.51-1.57A1.73,1.73,0,0,1,267.09,122.07Z" style="fill:#263238"></path><path d="M275.76,122.34l2.17,1.65a1.42,1.42,0,0,0-.36-1.6A1.71,1.71,0,0,0,275.76,122.34Z" style="fill:#263238"></path><path d="M295.36,176.16c-1.79-3.48-1.39-7.95,1.44-13,1.4-2.49.14-17.2.14-17.2l-9.38-.81a17.82,17.82,0,0,1-14.21,7.05,4.92,4.92,0,0,1-3.19-.85,3.86,3.86,0,0,1-.89-4.15,8.24,8.24,0,0,1,1.34-2.38h-2.73c-3.27,2.92-9.47,14.71-9.85,21.06-.2,3.18,2.26,4.74,4,5.73a35.69,35.69,0,0,1,.41,5.5,21.83,21.83,0,0,0,8.21,2.44C279.86,180.76,286.83,180,295.36,176.16Z" style="fill:#11888E"></path><path d="M295.36,176.16c-1.79-3.48-1.39-7.95,1.44-13,1.4-2.49.14-17.2.14-17.2l-9.38-.81a17.82,17.82,0,0,1-14.21,7.05,4.92,4.92,0,0,1-3.19-.85,3.86,3.86,0,0,1-.89-4.15,8.24,8.24,0,0,1,1.34-2.38h-2.73c-3.27,2.92-9.47,14.71-9.85,21.06-.2,3.18,2.26,4.74,4,5.73a35.69,35.69,0,0,1,.41,5.5,21.83,21.83,0,0,0,8.21,2.44C279.86,180.76,286.83,180,295.36,176.16Z" style="opacity:0.2"></path><path d="M301.58,204.54l12.69-22.26a8.92,8.92,0,0,0,.22-7.49L305,152.52a11.25,11.25,0,0,0-10.35-6.85h-1.75c-1,10,2.44,14.84,11.55,32.13,0,0-4.8,16.12-8.55,23.29a27.07,27.07,0,0,0-8,5.83,1.42,1.42,0,0,0-.07,1.9v0a1.39,1.39,0,0,0,1.72.34l3.62-1.88a39.08,39.08,0,0,1-4.76,7.88,1.5,1.5,0,0,0,.1,1.94h0a1.47,1.47,0,0,0,1.31.45l4-.58a7.14,7.14,0,0,0,5.39-3.95A24.28,24.28,0,0,0,301.58,204.54Z" style="fill:#c27a7a"></path><path d="M286.09,165.84A11.8,11.8,0,0,1,271.91,170a8.77,8.77,0,0,0,8.09,2.26C282.83,171.54,285.25,168.63,286.09,165.84Z" style="opacity:0.2"></path><path d="M279.43,233.39l1.08-7.48-3.06-19a17.92,17.92,0,0,1-8-3.08c.8,2.84,3.74,4.57,6.38,5.87Z" style="opacity:0.30000000000000004"></path><path d="M221.58,161.71a11.8,11.8,0,0,0,14.18,4.17,8.78,8.78,0,0,1-8.1,2.25C224.84,167.41,222.42,164.5,221.58,161.71Z" style="opacity:0.2"></path></g><g id="freepik--characters-1--inject-47"><path d="M113.12,207.67c-.43,1-1.62,1.5-2.2,2.44a2.36,2.36,0,1,0,4.13,2.26,6.64,6.64,0,0,1,0,2.7,2.62,2.62,0,0,1-1.68,2,4.78,4.78,0,0,1-3,8.11c.35,2.46-1.25,5.12-3.28,6.56a10.67,10.67,0,0,1-7.11,1.65,23.29,23.29,0,0,1-7.13-2.09A25.69,25.69,0,0,1,82,232.89c-2.34-.23-4.78-.85-6.39-2.55s-2-4.72-.27-6.31a3.62,3.62,0,0,1-3.68,0,3.13,3.13,0,0,1,.55-5.74A2.73,2.73,0,0,1,71,215.86a2.54,2.54,0,0,1,1.74-2,2.21,2.21,0,0,0,.61,2.28,2.06,2.06,0,0,0,2.27.11,2.8,2.8,0,0,0,1.17-2,9.66,9.66,0,0,0,0-2.34,17.42,17.42,0,0,1,.78-8,8.15,8.15,0,0,1,5.81-5.2,13.4,13.4,0,0,1,15.61-8.93c2.69.6,5.31,2.21,6.39,4.75a15,15,0,0,1,3.54-.3,4.73,4.73,0,0,1,3.19,1.18,2.85,2.85,0,0,1,.69,3.18c-.35.73-1.11,1.38-.93,2.17s.93,1,1.3,1.6a2.06,2.06,0,0,1,0,1.89,6.31,6.31,0,0,1-1.13,1.59c-.39.46-.81,1.05-.59,1.62S112.81,208.22,113.12,207.67Z" style="fill:#f28f8f"></path><path d="M105,228.66s8.72,1.15,23.72,14.07a169,169,0,0,0-20.16,2.6Z" style="fill:#ffcac9"></path><path d="M125.05,211.6c-6.51.79-9,6.76-9.53,12.35s-2.89,21-2.89,21l-6.78-2.73-.72,11.5,10.48,3.52a6.4,6.4,0,0,0,8.35-5.09l3.75-24.54Z" style="fill:#8c5c5c"></path><path d="M112.63,245c3.11.8,4.52,2.24,5.13,4.08.71-4.49-1.77-6.07-4.8-6.25Z" style="fill:#734242"></path><path d="M125.05,211.6c-6.83.29-9.31,5.43-10.25,12.59s-1.55,10.74-1.55,10.74c3.72,5.09,13,2.07,14.46,0Z" style="fill:#11888E"></path><path d="M125.05,211.6c-6.83.29-9.31,5.43-10.25,12.59s-1.55,10.74-1.55,10.74c3.72,5.09,13,2.07,14.46,0Z" style="opacity:0.1"></path><path d="M125.05,211.6c-6.83.29-9.31,5.43-10.25,12.59s-1.55,10.74-1.55,10.74c3.72,5.09,13,2.07,14.46,0Z" style="fill:#fff;opacity:0.2"></path><path d="M106.51,388a9.11,9.11,0,0,0,6.83,2.52,20.78,20.78,0,0,0,7.23-1.83c2.31-.95,5.21-3.61,7.71-3.56a59.31,59.31,0,0,0,7.31-.5,37.74,37.74,0,0,0-1-9.9l-11.67-.31c-3.15,4.32-9.27,7.91-13.91,9.25a4.09,4.09,0,0,0-2.88,3.07.22.22,0,0,1,0,.08A5,5,0,0,0,106.51,388Z" style="fill:#11888E"></path><path d="M106.51,388a9.11,9.11,0,0,0,6.83,2.52,20.78,20.78,0,0,0,7.23-1.83c2.31-.95,5.21-3.61,7.71-3.56a59.31,59.31,0,0,0,7.31-.5,37.74,37.74,0,0,0-1-9.9l-11.67-.31c-3.15,4.32-9.27,7.91-13.91,9.25a4.09,4.09,0,0,0-2.88,3.07.22.22,0,0,1,0,.08A5,5,0,0,0,106.51,388Z" style="fill:#fff;opacity:0.1"></path><path d="M128.28,385.12c-2.5-.05-5.4,2.61-7.71,3.56a20.78,20.78,0,0,1-7.23,1.83,9.11,9.11,0,0,1-6.83-2.52,5,5,0,0,1-.41-1.18.22.22,0,0,0,0-.08,3.91,3.91,0,0,0,0,1.56,5,5,0,0,0,.41,1.18,9.11,9.11,0,0,0,6.83,2.52,20.78,20.78,0,0,0,7.23-1.83c2.31-1,5.21-3.61,7.71-3.56a54.46,54.46,0,0,0,7.2-.41c.06-.52.09-1.05.11-1.57A59.31,59.31,0,0,1,128.28,385.12Z" style="fill:#11888E"></path><path d="M128.28,385.12c-2.5-.05-5.4,2.61-7.71,3.56a20.78,20.78,0,0,1-7.23,1.83,9.11,9.11,0,0,1-6.83-2.52,5,5,0,0,1-.41-1.18.22.22,0,0,0,0-.08,3.91,3.91,0,0,0,0,1.56,5,5,0,0,0,.41,1.18,9.11,9.11,0,0,0,6.83,2.52,20.78,20.78,0,0,0,7.23-1.83c2.31-1,5.21-3.61,7.71-3.56a54.46,54.46,0,0,0,7.2-.41c.06-.52.09-1.05.11-1.57A59.31,59.31,0,0,1,128.28,385.12Z" style="opacity:0.30000000000000004"></path><path d="M164.24,394.49a18,18,0,0,1-.38,3.8,8.82,8.82,0,0,1-3.47,5.54,11.19,11.19,0,0,1-5.52,1.47,12.29,12.29,0,0,1-5.05-.52,5.74,5.74,0,0,1-2.95-2.42s0,.05,0,.07a5.3,5.3,0,0,0,3.4,3.54,12.29,12.29,0,0,0,5.05.52,11.13,11.13,0,0,0,5.51-1.47,8.84,8.84,0,0,0,3.48-5.54,18.55,18.55,0,0,0,.37-3.8,6.45,6.45,0,0,1,2-4.64c.31-.29.61-.6.89-.91a2.33,2.33,0,0,0,.54-1.66c0-.24,0-.47-.07-.69-.46.53-1.55,1.81-1.82,2.07A6.4,6.4,0,0,0,164.24,394.49Z" style="fill:#11888E"></path><path d="M164.24,394.49a18,18,0,0,1-.38,3.8,8.82,8.82,0,0,1-3.47,5.54,11.19,11.19,0,0,1-5.52,1.47,12.29,12.29,0,0,1-5.05-.52,5.74,5.74,0,0,1-2.95-2.42s0,.05,0,.07a5.3,5.3,0,0,0,3.4,3.54,12.29,12.29,0,0,0,5.05.52,11.13,11.13,0,0,0,5.51-1.47,8.84,8.84,0,0,0,3.48-5.54,18.55,18.55,0,0,0,.37-3.8,6.45,6.45,0,0,1,2-4.64c.31-.29.61-.6.89-.91a2.33,2.33,0,0,0,.54-1.66c0-.24,0-.47-.07-.69-.46.53-1.55,1.81-1.82,2.07A6.4,6.4,0,0,0,164.24,394.49Z" style="opacity:0.30000000000000004"></path><path d="M154.66,381.26a13.87,13.87,0,0,1-1,7.7,29.27,29.27,0,0,1-4.07,6.7,20.45,20.45,0,0,0-2.14,3.11,5.57,5.57,0,0,0-.6,3.59,5.74,5.74,0,0,0,2.95,2.42,12.29,12.29,0,0,0,5.05.52,11.19,11.19,0,0,0,5.52-1.47,8.82,8.82,0,0,0,3.47-5.54,18,18,0,0,0,.38-3.8,6.4,6.4,0,0,1,2-4.64c.27-.26,1.36-1.54,1.82-2.07a14.19,14.19,0,0,0-1.88-5.38Z" style="fill:#11888E"></path><path d="M154.66,381.26a13.87,13.87,0,0,1-1,7.7,29.27,29.27,0,0,1-4.07,6.7,20.45,20.45,0,0,0-2.14,3.11,5.57,5.57,0,0,0-.6,3.59,5.74,5.74,0,0,0,2.95,2.42,12.29,12.29,0,0,0,5.05.52,11.19,11.19,0,0,0,5.52-1.47,8.82,8.82,0,0,0,3.47-5.54,18,18,0,0,0,.38-3.8,6.4,6.4,0,0,1,2-4.64c.27-.26,1.36-1.54,1.82-2.07a14.19,14.19,0,0,0-1.88-5.38Z" style="opacity:0.1"></path><path d="M154.66,381.26a13.87,13.87,0,0,1-1,7.7,29.27,29.27,0,0,1-4.07,6.7,20.45,20.45,0,0,0-2.14,3.11,5.57,5.57,0,0,0-.6,3.59,5.74,5.74,0,0,0,2.95,2.42,12.29,12.29,0,0,0,5.05.52,11.19,11.19,0,0,0,5.52-1.47,8.82,8.82,0,0,0,3.47-5.54,18,18,0,0,0,.38-3.8,6.4,6.4,0,0,1,2-4.64c.27-.26,1.36-1.54,1.82-2.07a14.19,14.19,0,0,0-1.88-5.38Z" style="fill:#fff;opacity:0.1"></path><path d="M122.4,272.1s-3,38.77-2.7,49.55S121,375,121,375c6,3.53,16,.44,16,.44.71-34,2.73-39.06.5-53.32,1.55-9.24,3.67-30.78,3.67-30.78,3,25.9,5.19,39.25,5.19,39.25l7.19,51.86c5.9,3.08,13.35,0,13.35,0,0-29.56.64-42.06-2.44-61.57-.16-30-1.68-48.29-1.68-48.29Z" style="fill:#455a64"></path><path d="M129.54,282.11c2.06,5.05,8.52,5.05,8.52,5.05l1.15,5.75-.43,20.41c1.24-9.93,2.43-21.94,2.43-21.94l-.8-6.14A17.06,17.06,0,0,1,129.54,282.11Z" style="opacity:0.2"></path><path d="M163.86,275s-23.45,8.58-42.48-2.11c0,0,1.15-13.64,1.5-21.6s-2.4-23.3-2.81-27.41.13-11.24,5-12.32c9-1.9,31.72.26,31.72.26l4.29,10.89A209.47,209.47,0,0,1,163.86,275Z" style="fill:#11888E"></path><path d="M163.86,275s-23.45,8.58-42.48-2.11c0,0,1.15-13.64,1.5-21.6s-2.4-23.3-2.81-27.41.13-11.24,5-12.32c9-1.9,31.72.26,31.72.26l4.29,10.89A209.47,209.47,0,0,1,163.86,275Z" style="opacity:0.1"></path><path d="M163.86,275s-23.45,8.58-42.48-2.11c0,0,1.15-13.64,1.5-21.6s-2.4-23.3-2.81-27.41.13-11.24,5-12.32c9-1.9,31.72.26,31.72.26l4.29,10.89A209.47,209.47,0,0,1,163.86,275Z" style="fill:#fff;opacity:0.41000000000000003"></path><path d="M123.87,196.39c-1.94-.1-4-.61-5.22-2.13a4.53,4.53,0,0,1,.14-5.54,7.62,7.62,0,0,1-1.92-2.52,4.55,4.55,0,0,1-.24-3.12,3.33,3.33,0,0,1,2.28-2.14,4.37,4.37,0,0,1-1.25-2.19,2.66,2.66,0,0,1,.86-2.41,2.57,2.57,0,0,1,2.45-.52,3.37,3.37,0,0,1,1.3-5.66,3.5,3.5,0,0,1,3.31.71,4.07,4.07,0,0,1,2.43-4,4,4,0,0,1,4.49,1,5.5,5.5,0,0,1,5-3.41,6,6,0,0,1,5.38,3.36A5.58,5.58,0,0,1,149,167a5.92,5.92,0,0,1,3,5.59,5.2,5.2,0,0,1,6.34,1.13,5.13,5.13,0,0,1-.19,6.38,3.85,3.85,0,0,1,3.26,3.38c.16,1.68-1.37,3.47-3,4a4,4,0,0,1,2.6,3.81A4.16,4.16,0,0,1,158,194.9a4.48,4.48,0,0,1,.8,3.13,3.63,3.63,0,0,1-1.78,2.65,3.32,3.32,0,0,1-3.28.14,3.93,3.93,0,0,1-6.88,2.44,6.52,6.52,0,0,1-4.3,1.77,16.58,16.58,0,0,1-4.53-.55,35.32,35.32,0,0,1-8-2.47A13.55,13.55,0,0,1,123.87,196.39Z" style="fill:#263238"></path><path d="M123.46,180.7a10.85,10.85,0,0,0,7.25,3.05c2.55,0,5-.81,7.48-1.49a5.63,5.63,0,0,0,1.69,3.12,6.43,6.43,0,0,0,3.48,1.52,22.5,22.5,0,0,0,0,6.95,1.33,1.33,0,0,0,.88,1.07c.83.24,1.38-.61,1.78-1.3a5.68,5.68,0,0,1,1.8-2,2.79,2.79,0,0,1,2.59-.27A2.69,2.69,0,0,1,151.8,193a5,5,0,0,1,.11,2.2,6.73,6.73,0,0,1-1.43,3.37,4.53,4.53,0,0,1-3.2,1.64,3.29,3.29,0,0,1-3.07-1.51l-.05.22a8.91,8.91,0,0,1-.34,1.07,9.19,9.19,0,0,1-6.72,5.75c-1.55.33-3.28.64-5,.91-.86.13-1.74.25-2.61.36a6.29,6.29,0,0,1-6.94-5.14C121.31,195.17,120.91,187.35,123.46,180.7Z" style="fill:#8c5c5c"></path><path d="M143.82,200v11.7a12.89,12.89,0,0,1-9.41,5.22,4.61,4.61,0,0,1-3.39-.87,2.81,2.81,0,0,1-.84-2.63,2.84,2.84,0,0,1,1.19-1.71,1.5,1.5,0,0,0,.68-1.25v-3.8c1.77-.27,3.5-.58,5-.91A9.19,9.19,0,0,0,143.82,200Z" style="fill:#8c5c5c"></path><path d="M136,208.34a24.93,24.93,0,0,1-3.95.7v-2.37c1.77-.27,3.5-.58,5-.91a9.15,9.15,0,0,0,6.49-5.24,9.4,9.4,0,0,1-2.37,4.9A11.28,11.28,0,0,1,136,208.34Z" style="fill:#734242"></path><path d="M118.76,188.12v1.59l.4.22a18.19,18.19,0,0,1,.36,3.13,4.27,4.27,0,0,0,1.08,2.77,4.15,4.15,0,0,0,2.91.81,5.1,5.1,0,0,0,2.42-.37,4.16,4.16,0,0,0,1.85-2.37c.35-1,.29-1.57.72-2.77a.83.83,0,0,1,.78-.56.88.88,0,0,1,.82.56c.47,1.2.41,1.77.78,2.77a4.19,4.19,0,0,0,2,2.37,5.82,5.82,0,0,0,2.59.37,4.66,4.66,0,0,0,3.11-.81,4.14,4.14,0,0,0,1.16-2.77,16.43,16.43,0,0,1,.38-3.13l.42-.22v-1.59a11,11,0,0,0-10.45,1.06h-1.52A9.77,9.77,0,0,0,118.76,188.12Zm12.12,1.56a10.12,10.12,0,0,1,5.34-1.55,10,10,0,0,1,2.65.36c.06,1.21.11,2.88.06,3.64,0,.27,0,.55-.07.81a3.33,3.33,0,0,1-.88,2.23,4,4,0,0,1-2.57.61h-.35a4.39,4.39,0,0,1-1.85-.3,3.45,3.45,0,0,1-1.57-1.91,13.82,13.82,0,0,1-.76-3l-.06-.57S130.8,189.73,130.88,189.68Zm-10.58-1.19a8.8,8.8,0,0,1,2.48-.36,9,9,0,0,1,5,1.55c.08,0,.06.32.06.32l-.06.57a14.06,14.06,0,0,1-.71,3,3.37,3.37,0,0,1-1.46,1.91,3.9,3.9,0,0,1-1.74.3h-.32a3.59,3.59,0,0,1-2.41-.61,3.43,3.43,0,0,1-.82-2.23c0-.26,0-.54-.06-.81C120.2,191.37,120.24,189.7,120.3,188.49Z" style="fill:#11888E"></path><path d="M140.51,188.12l8.51,3.06a3.61,3.61,0,0,0-1.66.78c-.09.08-6.85-2.25-6.85-2.25Z" style="fill:#11888E"></path><polygon points="129.31 190.7 125.02 195.9 128.96 197.29 129.31 190.7" style="fill:#734242"></polygon><path d="M135.38,191.35a1.18,1.18,0,1,1-1.19-1.17A1.19,1.19,0,0,1,135.38,191.35Z" style="fill:#263238"></path><path d="M125.47,191a1.18,1.18,0,1,1-2.35,0,1.18,1.18,0,1,1,2.35,0Z" style="fill:#263238"></path><path d="M126.1,185.8l-3.16.36a1.67,1.67,0,0,1,1.32-1.39A2,2,0,0,1,126.1,185.8Z" style="fill:#263238"></path><path d="M133.35,186.1l3.07.81a1.69,1.69,0,0,0-1.11-1.57A2,2,0,0,0,133.35,186.1Z" style="fill:#263238"></path><path d="M132.88,199.29l-3.3,1.6a2.15,2.15,0,0,0,2.5.71A1.94,1.94,0,0,0,132.88,199.29Z" style="fill:#f28f8f"></path><path d="M132.88,199.29l-3.3,1.6a2.15,2.15,0,0,0,2.5.71A1.94,1.94,0,0,0,132.88,199.29Z" style="fill:#633232"></path><path d="M130.94,201.71a1.91,1.91,0,0,0,1.14-.11,1.74,1.74,0,0,0,.88-1.74,2.15,2.15,0,0,0-1.3.46A2.08,2.08,0,0,0,130.94,201.71Z" style="fill:#734242"></path><path d="M68,386.73l0-.94C68.06,386.12,68,386.67,68,386.73Z" style="fill:none"></path><path d="M91,314.19a19.39,19.39,0,0,1-18.56-3.61c.16,4.77.37,10,.59,15.82-4,12.06-4,33.29-5,59.26h0a.53.53,0,0,0,0,.13l0,.94c-.26,3.71-.35,7.43-.27,11.14a9,9,0,0,0,.49,3.3,2.88,2.88,0,0,0,5.45.25,9.56,9.56,0,0,0,.91-3.59q.59-5.15,1.19-10.29c.07-.34.16-.76.24-1.12h0L87.79,331Z" style="fill:#ffcac9"></path><path d="M75.81,387.54q-.6,5.15-1.19,10.29a9.56,9.56,0,0,1-.91,3.59,2.88,2.88,0,0,1-5.45-.25,9,9,0,0,1-.49-3.3c-.08-3.71,0-7.43.27-11.14,0-.06,0-.61,0-.94a.53.53,0,0,1,0-.13h0c-.06,0-.14,0-.23.14a1.91,1.91,0,0,0-.43,1.34c.07,3-.92,6-1.83,8.94-1,3.09-1.85,6.34-1.31,9.53a11,11,0,0,0,3.25,6.11,6.81,6.81,0,0,0,2.69,1.67,3.89,3.89,0,0,0,3.08-.28,5.12,5.12,0,0,0,1.9-2.35c1.68-3.53,1.73-7.6,1.48-11.5s-.27-12.65-.63-12.84h0C76,386.78,75.88,387.2,75.81,387.54Z" style="fill:#455a64"></path><path d="M126,401c-.18-1.33-1.51-2.15-2.61-2.92a16.77,16.77,0,0,1-2.73-2.39,2,2,0,0,1-.41,1.16,3.57,3.57,0,0,1-2.42,1.09,8,8,0,0,1-6.62-2.58c-1.68-1.89-2.35-4.46-3.63-6.64-1-1.79-2.51-3.31-3.6-5.07a8.43,8.43,0,0,1-1.41-4.41,15.7,15.7,0,0,0-1.26,2.92,6.31,6.31,0,0,0,0,4,2.39,2.39,0,0,0,.13.28c.81,1.79,2.58,3,3.68,4.65a9.89,9.89,0,0,1,1,2c.39,1.1.66,2.27,1,3.42a12.88,12.88,0,0,0,1.27,3.2,9.88,9.88,0,0,0,5.68,4.12,20.53,20.53,0,0,0,7.12.61,7.41,7.41,0,0,0,3.23-.72A2.86,2.86,0,0,0,126,401Z" style="fill:#455a64"></path><path d="M107.57,388.74c1.28,2.18,2,4.75,3.63,6.64a8,8,0,0,0,6.62,2.58,3.57,3.57,0,0,0,2.42-1.09,2,2,0,0,0,.41-1.16,24.7,24.7,0,0,1-3.86-5.58,99.85,99.85,0,0,1-5-12l1.45-48.53s.42-8.76.13-20.43A18.92,18.92,0,0,1,96.1,313c.61,5,1.52,11.72,2.57,17.18C97.21,343,102,368.07,103,378.52c-.14.24-.27.49-.4.74a8.43,8.43,0,0,0,1.41,4.41C105.06,385.43,106.52,387,107.57,388.74Z" style="fill:#ffcac9"></path><path d="M106.13,393.11l-.64,3.83a9.54,9.54,0,0,1-4-3.08c-.08-2.94,0-6,0-7.44.81,1.79,2.58,3,3.68,4.65A9.89,9.89,0,0,1,106.13,393.11Z" style="fill:#37474f"></path><path d="M107.1,396.53l-1.61.41.64-3.83C106.52,394.21,106.79,395.38,107.1,396.53Z" style="fill:#263238"></path><path d="M114,310.58c-.32-13-1.43-29.17-4.59-42.17l-.54-8.4-30.58-1.23v4.74c-7.36,10.38-7.89,23.48-7.07,48.24a22,22,0,0,0,9.13,4.56C84.14,317.21,108.39,320.52,114,310.58Z" style="fill:#11888E"></path><path d="M114,310.58c-.32-13-1.43-29.17-4.59-42.17l-.54-8.4-30.58-1.23v4.74c-7.36,10.38-7.89,23.48-7.07,48.24a22,22,0,0,0,9.13,4.56C84.14,317.21,108.39,320.52,114,310.58Z" style="opacity:0.4"></path><path d="M81.61,229.34l3.7-.35a17.82,17.82,0,0,0,14.21,7c1.66,0,3.48-.29,4.15-2.32a3.85,3.85,0,0,0,.14-1.75,7.05,7.05,0,0,0-1.56-3.31H105a29.85,29.85,0,0,1,7.5,10.76,12.76,12.76,0,0,1,1.21,5.71,6.45,6.45,0,0,1-1.94,4.33,2.35,2.35,0,0,0-.73,1.84,30.26,30.26,0,0,1-.31,5.64,9.36,9.36,0,0,1-3,5.86,12,12,0,0,1-5.76,2.21,43,43,0,0,1-15.83-.3c-3-.62-6.13-1.7-8-4.13-1.74-2.27-2.07-5.3-2-8.16,0-1.89,0-11.18-.1-17.25C76,232.07,81.61,229.34,81.61,229.34Z" style="fill:#11888E"></path><path d="M81.61,229.34l3.7-.35a17.82,17.82,0,0,0,14.21,7c1.66,0,3.48-.29,4.15-2.32a3.85,3.85,0,0,0,.14-1.75,7.05,7.05,0,0,0-1.56-3.31H105a29.85,29.85,0,0,1,7.5,10.76,12.76,12.76,0,0,1,1.21,5.71,6.45,6.45,0,0,1-1.94,4.33,2.35,2.35,0,0,0-.73,1.84,30.26,30.26,0,0,1-.31,5.64,9.36,9.36,0,0,1-3,5.86,12,12,0,0,1-5.76,2.21,43,43,0,0,1-15.83-.3c-3-.62-6.13-1.7-8-4.13-1.74-2.27-2.07-5.3-2-8.16,0-1.89,0-11.18-.1-17.25C76,232.07,81.61,229.34,81.61,229.34Z" style="opacity:0.1"></path><path d="M81.61,229.34l3.7-.35a17.82,17.82,0,0,0,14.21,7c1.66,0,3.48-.29,4.15-2.32a3.85,3.85,0,0,0,.14-1.75,7.05,7.05,0,0,0-1.56-3.31H105a29.85,29.85,0,0,1,7.5,10.76,12.76,12.76,0,0,1,1.21,5.71,6.45,6.45,0,0,1-1.94,4.33,2.35,2.35,0,0,0-.73,1.84,30.26,30.26,0,0,1-.31,5.64,9.36,9.36,0,0,1-3,5.86,12,12,0,0,1-5.76,2.21,43,43,0,0,1-15.83-.3c-3-.62-6.13-1.7-8-4.13-1.74-2.27-2.07-5.3-2-8.16,0-1.89,0-11.18-.1-17.25C76,232.07,81.61,229.34,81.61,229.34Z" style="fill:#fff;opacity:0.2"></path><path d="M102.45,249.48a10.94,10.94,0,0,1-13.56-2.19,8.07,8.07,0,0,0,6.07,5.8C97.84,253.62,100.75,251.86,102.45,249.48Z" style="opacity:0.2"></path><path d="M102.7,235.19a4.89,4.89,0,0,1-3.18.85,17.82,17.82,0,0,1-14.21-7l3.16-.27V218.56l11,4.24v5.86h2.81a8.06,8.06,0,0,1,1.34,2.39A3.83,3.83,0,0,1,102.7,235.19Z" style="fill:#ffcac9"></path><path d="M89.24,218.86c3.28,6.38,5.33,6.52,10.2,7.09V222.8Z" style="fill:#ffa8a7"></path><path d="M109.13,204.11a40,40,0,0,1,.17,14.59c-.32,1.82-.84,3.75-2.28,4.9-1.77,1.42-4.31,1.21-6.56.92a26.08,26.08,0,0,1-7.23-1.62,8.85,8.85,0,0,1-5.07-5.12,3.19,3.19,0,0,1-3.85-.62,5.62,5.62,0,0,1-1.41-3.87,3.69,3.69,0,0,1,1.39-3.38,2.93,2.93,0,0,1,2.52-.1,6.12,6.12,0,0,1,2.1,1.51,4.3,4.3,0,0,0,1,.86,1.24,1.24,0,0,0,1.26,0,1.83,1.83,0,0,0,.53-1.48,13.77,13.77,0,0,1,1.47-6.42c1.13-1.91,3.42-3.31,5.57-2.73,1,.27,1.86.92,2.88.94a4.48,4.48,0,0,0,2.29-.75l0,0A3.34,3.34,0,0,1,109.13,204.11Z" style="fill:#ffcac9"></path><polygon points="102.21 210.09 105.13 215 101.65 215.66 102.21 210.09" style="fill:#ffa8a7"></polygon><path d="M98.3,217.35l2.64,1.28a1.7,1.7,0,0,1-2,.57A1.54,1.54,0,0,1,98.3,217.35Z" style="fill:#bf6161"></path><path d="M99.85,219.29a1.48,1.48,0,0,1-.91-.09,1.39,1.39,0,0,1-.71-1.39,1.7,1.7,0,0,1,1,.36A1.64,1.64,0,0,1,99.85,219.29Z" style="fill:#f28f8f"></path><path d="M99.85,219.29a1.48,1.48,0,0,1-.91-.09,1.39,1.39,0,0,1-.71-1.39,1.7,1.7,0,0,1,1,.36A1.64,1.64,0,0,1,99.85,219.29Z" style="fill:#f28f8f"></path><path d="M97.17,210.28a1,1,0,0,0,.9,1.1,1,1,0,1,0-.9-1.1Z" style="fill:#263238"></path><path d="M105.55,210.8a1,1,0,0,0,.9,1.1,1,1,0,0,0,1.09-.9,1,1,0,0,0-.89-1.09A1,1,0,0,0,105.55,210.8Z" style="fill:#263238"></path><path d="M106.92,206.94l2,1.75a1.42,1.42,0,0,0-.27-1.6A1.68,1.68,0,0,0,106.92,206.94Z" style="fill:#f28f8f"></path><path d="M98.42,206l-2.36,1.3a1.41,1.41,0,0,1,.59-1.52A1.69,1.69,0,0,1,98.42,206Z" style="fill:#f28f8f"></path><path d="M81.61,229.34c4.08,1.66,4.75,5.36,6.64,10.23s8.94,22.88,8.94,22.88,12.48,4.36,18.65,6a3.43,3.43,0,0,0,2.69-.41l1.8-1.13a4.64,4.64,0,0,1,2-.68,15.94,15.94,0,0,0,4.31-1,1.32,1.32,0,0,1,1.7.76h0a1.32,1.32,0,0,1-.38,1.48,5.27,5.27,0,0,1-3.77,1.36c3,1.46,7.39.62,9.39.11a1.25,1.25,0,0,1,1.48.78h0a1.26,1.26,0,0,1-.73,1.63l-1,.36c1,3.61-1.46,5.56-5,6.33-3.32.72-7.91.28-13.07-1.55a11.88,11.88,0,0,0-2.4-.6,199.11,199.11,0,0,1-20.54-3.64,8.68,8.68,0,0,1-5.85-4.87c-9.33-20.58-14.77-35.28-9.2-37.24A16.12,16.12,0,0,1,81.61,229.34Z" style="fill:#ffcac9"></path><path d="M97.19,262.45c-3,.23-5.82,2.72-5.82,2.72.5-4.12,3.57-5,4.92-5Z" style="fill:#ffa8a7"></path><path d="M156.77,211.86c-3.64,3-3.14,7-3.51,12.62s-1.81,26.34-1.81,26.34-11.39,8.49-17.19,12.16a3.67,3.67,0,0,1-2.89.45l-2.2-.58a5.05,5.05,0,0,0-2.32,0,17.4,17.4,0,0,1-4.67.32,1.42,1.42,0,0,0-1.49,1.32h0a1.39,1.39,0,0,0,.82,1.38,5.65,5.65,0,0,0,4.35.2c-2.65,2.47-7.38,3-9.59,3.13a1.36,1.36,0,0,0-1.28,1.28h0a1.36,1.36,0,0,0,1.28,1.43l1.11.07c.08,4,3.29,5.23,7.2,4.87,3.64-.34,8.2-2.27,12.9-5.8a12.63,12.63,0,0,1,2.28-1.39,212.4,212.4,0,0,0,19.88-10.35,9.31,9.31,0,0,0,4.44-6.87c1.39-11.76,2.31-22.83,1.83-30.31a11.2,11.2,0,0,0-9-10.21Z" style="fill:#8c5c5c"></path><path d="M151.45,250.82c3.12-.71,6.85.91,6.85.91-1.84-4.06-5.26-3.95-6.66-3.56Z" style="fill:#734242"></path><path d="M156.77,211.86c-3.93,2.42-3.87,6.88-4.31,15.55s-.72,10-.72,10c6.46,4.9,13.17,2.14,15.17.08C167.71,219.57,168.61,213.78,156.77,211.86Z" style="fill:#11888E"></path><path d="M156.77,211.86c-3.93,2.42-3.87,6.88-4.31,15.55s-.72,10-.72,10c6.46,4.9,13.17,2.14,15.17.08C167.71,219.57,168.61,213.78,156.77,211.86Z" style="opacity:0.2"></path><path d="M156.77,211.86c-3.93,2.42-3.87,6.88-4.31,15.55s-.72,10-.72,10c6.46,4.9,13.17,2.14,15.17.08C167.71,219.57,168.61,213.78,156.77,211.86Z" style="fill:#fff;opacity:0.2"></path></g></svg>